<svg xmlns="http://www.w3.org/2000/svg" viewBox="0 0 37 32">
   <path d="M2.096 16.604a30.8-30.8 0 00-.275 2.893c-.092 1.652 2.203 2.111 2.984.826.046-.092.092-.138.138-.23.275.551.826.873 1.423.92-.092.32-.184.687-.322 1.01-.505 1.605 1.837 2.753 2.755 1.513.184.184.46.322.69.414-.093.275-.185.505-.277.78-.55 1.561 1.286 2.387 2.433 1.7l-.137.55c-.368 1.7 2.112 2.938 2.938 1.24.46-.919.872-1.79 1.331-2.709-.137 1.01.69 1.652 1.515 1.698-.275.964-.55 1.883-.826 2.8-.55 1.791 2.02 2.755 2.938 1.24a49.63-49.63 0 002.617-4.866c.046 1.148 1.331 1.79 2.25 1.423.046.46.091.964.183 1.423.276 1.378 2.296 1.515 2.938.368a191.834-191.834 0 002.801-5.28c-.092.413-.138.826-.23 1.285-.32 1.653 1.424 2.571 2.663 1.561 1.561-1.24 2.847-2.662 3.994-4.27 1.102-1.56-1.24-3.075-2.525-1.882.551-2.846 1.056-5.692 1.607-8.493.322-1.653-2.158-3.03-2.938-1.24-.092.184-.138.322-.23.506-.459-.505-1.147-.78-1.698-.55.367-1.608.734-3.215 1.147-4.868.414-1.836-1.928-2.754-2.938-1.24-.505.735-.964 1.47-1.423 2.204-.413-.275-1.056-.367-1.607-.23.413-1.698.78-3.35 1.194-5.05.367-1.698-2.112-2.937-2.938-1.239-.643 1.286-1.286 2.617-1.929 3.903-.137-1.01-1.24-1.515-2.157-1.24.091-1.79-2.48-2.387-3.122-.55-.643 1.835-1.332 3.672-1.974 5.508.367-1.01.734-2.02 1.102-3.076.688-1.974-2.434-2.8-3.122-.872-.322.872-.643 1.745-.964 2.663a19.9 19.9 0 00-.092-1.653c-.138-1.745-2.663-2.25-3.168-.413-.643 2.433-1.653 4.637-2.8 6.75.367-2.159.734-4.363.826-6.567.092-1.882-2.617-2.11-3.168-.413-.505 1.653-1.056 3.306-1.56 5.004-.46 1.515-.78 3.168-1.745 4.408-.919 1.285.413 2.525 1.698 2.341zm4.316-1.423a1.81-1.81 0 00.23-.643c0-.413.23-.597.642-.643h.138c.23.23.55.138.826.138.643-.046 1.286 0 1.882-.046.505-.046 1.056 0 1.561-.138.23-.046.46-.046.69-.046 1.01 0 1.973-.183 2.983-.092 1.01.093 1.974 0 2.984 0 0-.045.046-.09.046-.09l-.183-.185c-.276-.23-.505-.46-.597-.826-.092-.368-.276-.735-.368-1.148-.045-.184 0-.413 0-.597 0-.46.184-1.01.276-1.47.046-.229.092-.458.23-.642.137-.184.413-.32.596-.23a1.01-1.01 0 01.23.138c.183.092.367.092.55.138.322.092.552.275.827.46.597.458 1.331.734 2.02 1.1.413.23.78.552 1.194.827.321.23.688.413 1.056.597.413.23.872.413 1.285.643.092.046.138.138.23.23l.321.32c.138.368.184.827.413 1.194.092.092.092.276.138.414.092.413.138.872.23 1.285 0 .092 0 .184-.046.276-.046.23-.092.46.091.642-.045.184-.09.322-.09.46a.503.503 0 01-.277.458l-.275.138c-.643.23-.918.872-1.378 1.286-.459.413-.826.872-1.423 1.056-.092 0-.137.092-.23.137-.183.092-.32.184-.504.322-.092.046-.23.092-.276.183-.32.368-.734.505-1.193.643-.23.092-.46.275-.69.413-.55.322-1.01.69-1.652.827-.046 0-.092.046-.138.092-.32.183-.55.092-.734-.23-.276-.459-.23-1.01-.367-1.469-.046-.184-.046-.367-.276-.46-.413-.275-.55-.78-.413-1.285.184-.596.55-1.056 1.01-1.469l.413-.413c-.688 0-1.33-.046-1.928.138a1.647 1.647 0 01-.505.092c-.413 0-.826.046-1.194.184-.046 0-.092 0-.137.045-.368.368-.919.414-1.378.597-.137.046-.23.138-.32.184-.552.046-1.057.092-1.608.184-.092 0-.184.137-.32.137-.23.046-.414.184-.644 0-.046-.046-.138 0-.184 0-.137 0-.32.046-.459.046-.642 0-1.24-.137-1.882-.23H7.79c-.413-.412-1.102-.55-1.194-1.285-.046-.32-.23-.642-.32-.964-.047-.137-.047-.275-.047-.413 0-.092.046-.184 0-.23-.092-.32.092-.55.184-.78z" />
</svg>
