<?xml version="1.0" encoding="UTF-8" standalone="no"?>
<svg
   xmlns:dc="http://purl.org/dc/elements/1.1/"
   xmlns:cc="http://creativecommons.org/ns#"
   xmlns:rdf="http://www.w3.org/1999/02/22-rdf-syntax-ns#"
   xmlns:svg="http://www.w3.org/2000/svg"
   xmlns="http://www.w3.org/2000/svg"
   xmlns:sodipodi="http://sodipodi.sourceforge.net/DTD/sodipodi-0.dtd"
   xmlns:inkscape="http://www.inkscape.org/namespaces/inkscape"
   inkscape:version="1.0rc1 (09960d6f05, 2020-04-09)"
   sodipodi:docname="arrow-right.svg"
   id="svg4"
   version="1.1"
   viewBox="0 0 37 32">
  <metadata
     id="metadata10">
    <rdf:RDF>
      <cc:Work
         rdf:about="">
        <dc:format>image/svg+xml</dc:format>
        <dc:type
           rdf:resource="http://purl.org/dc/dcmitype/StillImage" />
        <dc:title></dc:title>
      </cc:Work>
    </rdf:RDF>
  </metadata>
  <defs
     id="defs8" />
  <sodipodi:namedview
     inkscape:current-layer="svg4"
     inkscape:window-maximized="1"
     inkscape:window-y="0"
     inkscape:window-x="0"
     inkscape:cy="16.922261"
     inkscape:cx="21.736749"
     inkscape:zoom="8.84375"
     showgrid="false"
     id="namedview6"
     inkscape:window-height="491"
     inkscape:window-width="924"
     inkscape:pageshadow="2"
     inkscape:pageopacity="0"
     guidetolerance="10"
     gridtolerance="10"
     objecttolerance="10"
     borderopacity="1"
     bordercolor="#666666"
     pagecolor="#ffffff" />
  <path
     inkscape:connector-curvature="0"
     id="path2"
     d="m 2.0962562,16.604188 a 30.8,-30.8 0 0 0 -0.275,2.893 c -0.092,1.652 2.203,2.111 2.984,0.826 0.046,-0.092 0.092,-0.138 0.138,-0.23 0.275,0.551 0.826,0.873 1.423,0.919 -0.092,0.32 -0.184,0.688 -0.322,1.01 -0.505,1.606 1.837,2.754 2.755,1.514 0.184,0.184 0.46,0.322 0.689,0.414 -0.092,0.275 -0.184,0.505 -0.276,0.78 -0.55,1.561 1.2859998,2.387 2.4329998,1.699 l -0.137,0.55 c -0.368,1.7 2.112,2.939 2.938,1.24 0.459,-0.918 0.872,-1.79 1.331,-2.708 -0.137,1.01 0.689,1.652 1.515,1.698 -0.275,0.964 -0.55,1.883 -0.826,2.8 -0.55,1.791 2.02,2.755 2.938,1.24 a 49.63,-49.63 0 0 0 2.617,-4.866 c 0.046,1.148 1.331,1.79 2.25,1.423 0.046,0.46 0.091,0.964 0.183,1.423 0.276,1.378 2.296,1.515 2.938,0.368 a 191.834,-191.834 0 0 0 2.801,-5.28 c -0.092,0.413 -0.138,0.826 -0.23,1.285 -0.32,1.653 1.424,2.571 2.663,1.561 1.561,-1.24 2.847,-2.662 3.994,-4.27 1.102,-1.56 -1.24,-3.075 -2.525,-1.882 0.551,-2.846 1.056,-5.692 1.607,-8.493 0.322,-1.653 -2.158,-3.0300002 -2.938,-1.24 -0.092,0.184 -0.138,0.322 -0.23,0.506 -0.459,-0.505 -1.147,-0.78 -1.698,-0.551 0.367,-1.6070002 0.734,-3.2140002 1.147,-4.8670002 0.414,-1.836 -1.928,-2.754 -2.938,-1.24 -0.505,0.735 -0.964,1.47 -1.423,2.204 -0.413,-0.275 -1.056,-0.367 -1.607,-0.23 0.413,-1.698 0.78,-3.35 1.194,-5.05 0.367,-1.69800005 -2.112,-2.93700005 -2.938,-1.23900005 -0.643,1.28600005 -1.286,2.61700005 -1.929,3.90300005 -0.137,-1.01 -1.24,-1.515 -2.157,-1.24 0.091,-1.79 -2.48,-2.387 -3.122,-0.55 -0.643,1.835 -1.332,3.672 -1.974,5.508 0.367,-1.01 0.734,-2.02 1.102,-3.076 0.688,-1.974 -2.434,-2.8 -3.122,-0.872 -0.322,0.872 -0.643,1.745 -0.964,2.663 0,-0.551 -0.046,-1.102 -0.092,-1.653 -0.138,-1.745 -2.6629998,-2.25 -3.1679998,-0.413 -0.643,2.433 -1.653,4.637 -2.8,6.7490002 0.367,-2.1580002 0.734,-4.3620002 0.826,-6.5660002 0.092,-1.882 -2.617,-2.111 -3.168,-0.413 -0.505,1.653 -1.056,3.306 -1.56,5.004 -0.46,1.5150002 -0.781,3.1680002 -1.74500002,4.4080002 -0.919,1.285 0.413,2.525 1.69800002,2.341 z m 4.316,-1.423 a 1.81,-1.81 0 0 0 0.23,-0.643 c 0,-0.413 0.229,-0.597 0.642,-0.643 h 0.138 c 0.23,0.23 0.55,0.138 0.826,0.138 0.643,-0.046 1.286,0 1.8819998,-0.046 0.505,-0.046 1.056,0 1.561,-0.138 0.23,-0.046 0.46,-0.046 0.689,-0.046 1.01,0 1.974,-0.183 2.984,-0.092 1.01,0.093 1.974,0 2.984,0 0,-0.045 0.046,-0.091 0.046,-0.091 l -0.183,-0.184 c -0.276,-0.23 -0.505,-0.46 -0.597,-0.826 -0.092,-0.368 -0.276,-0.735 -0.368,-1.148 -0.045,-0.184 0,-0.413 0,-0.597 0,-0.46 0.184,-1.0100002 0.276,-1.4700002 0.046,-0.229 0.092,-0.458 0.23,-0.642 0.137,-0.184 0.413,-0.321 0.596,-0.23 a 1.01,-1.01 0 0 1 0.23,0.138 c 0.183,0.092 0.367,0.092 0.55,0.138 0.322,0.092 0.552,0.275 0.827,0.46 0.597,0.458 1.331,0.734 2.02,1.1000002 0.413,0.23 0.78,0.552 1.194,0.827 0.321,0.23 0.688,0.413 1.056,0.597 0.413,0.23 0.872,0.413 1.285,0.643 0.092,0.046 0.138,0.138 0.23,0.23 l 0.321,0.32 c 0.138,0.368 0.184,0.827 0.413,1.194 0.092,0.092 0.092,0.276 0.138,0.414 0.092,0.413 0.138,0.872 0.23,1.285 0,0.092 0,0.184 -0.046,0.276 -0.046,0.23 -0.092,0.459 0.091,0.642 -0.045,0.184 -0.091,0.322 -0.091,0.46 0,0.183 -0.092,0.367 -0.276,0.458 l -0.275,0.138 c -0.643,0.23 -0.918,0.872 -1.378,1.286 -0.459,0.413 -0.826,0.872 -1.423,1.056 -0.092,0 -0.137,0.092 -0.23,0.137 -0.183,0.092 -0.32,0.184 -0.504,0.322 -0.092,0.046 -0.23,0.092 -0.276,0.183 -0.321,0.368 -0.734,0.505 -1.193,0.643 -0.23,0.092 -0.46,0.275 -0.69,0.413 -0.55,0.322 -1.01,0.689 -1.652,0.827 -0.046,0 -0.092,0.046 -0.138,0.092 -0.32,0.183 -0.55,0.092 -0.734,-0.23 -0.276,-0.459 -0.23,-1.01 -0.367,-1.469 -0.046,-0.184 -0.046,-0.367 -0.276,-0.46 -0.413,-0.275 -0.55,-0.78 -0.413,-1.285 0.184,-0.596 0.55,-1.056 1.01,-1.469 l 0.413,-0.413 c -0.688,0 -1.331,-0.046 -1.928,0.138 -0.138,0.046 -0.321,0.092 -0.505,0.092 -0.413,0 -0.826,0.046 -1.194,0.184 -0.046,0 -0.092,0 -0.137,0.045 -0.368,0.368 -0.919,0.414 -1.378,0.597 -0.137,0.046 -0.23,0.138 -0.321,0.184 -0.551,0.046 -1.056,0.092 -1.607,0.184 -0.092,0 -0.184,0.137 -0.321,0.137 -0.23,0.046 -0.413,0.184 -0.643,0 -0.046,-0.046 -0.138,0 -0.184,0 -0.137,0 -0.3209998,0.046 -0.4589998,0.046 -0.642,0 -1.24,-0.137 -1.882,-0.23 h -0.046 c -0.413,-0.412 -1.102,-0.55 -1.194,-1.285 -0.046,-0.321 -0.23,-0.642 -0.321,-0.964 -0.046,-0.137 -0.046,-0.275 -0.046,-0.413 0,-0.092 0.046,-0.184 0,-0.23 -0.092,-0.32 0.092,-0.55 0.184,-0.78 z" />
</svg>
