<svg xmlns="http://www.w3.org/2000/svg" viewBox="0 0 24 24">
    <path d="M11.97 2c-2.56.02-5.02.3-6.45.96 0 0-2.84 1.27-2.84 5.6 0 1-.02 2.19.01 3.45.1 4.24.78 8.42 4.7 9.46 1.81.48 3.36.58 4.61.51a9.15 9.15 0 003.54-.8l-.07-1.65s-1.62.5-3.44.44c-1.8-.06-3.7-.19-4-2.4-.03-.2-.04-.4-.04-.63 0 0 1.77.44 4.01.54a23.7 23.7 0 003.97-.24c2.5-.3 4.69-1.84 4.96-3.25.43-2.22.4-5.42.4-5.42 0-4.34-2.85-5.61-2.85-5.61-1.43-.66-3.89-.94-6.45-.96zm-2.9 3.39c1.07 0 1.88.4 2.41 1.23l.52.87.52-.87a2.68 2.68 0 012.4-1.23c.92 0 1.67.32 2.23.95.55.64.82 1.49.82 2.56v5.26H15.9v-5.1c0-1.08-.45-1.62-1.35-1.62-1 0-1.5.64-1.5 1.92v2.8h-2.07v-2.8c0-1.28-.5-1.92-1.5-1.92-.91 0-1.36.54-1.36 1.62v5.1H6.03V8.9c0-1.07.27-1.92.82-2.56.56-.63 1.3-.95 2.23-.95z"/>
</svg>
