<svg xmlns="http://www.w3.org/2000/svg" viewBox="0 0 24 24">
    <path fill-rule="evenodd" d="M12 6c-2.667 0-4.333 1.333-5 4 1-1.333 2.167-1.833 3.5-1.5.76.19 1.304.742 1.906 1.353C13.386 10.848 14.522 12 17 12c2.667 0 4.333-1.333 5-4-1 1.333-2.167 1.833-3.5 1.5-.76-.19-1.304-.742-1.906-1.353C15.614 7.152 14.478 6 12 6zm-5 6c-2.667 0-4.333 1.333-5 4 1-1.333 2.167-1.833 3.5-1.5.76.19 1.304.742 1.906 1.353C8.386 16.848 9.522 18 12 18c2.667 0 4.333-1.333 5-4-1 1.333-2.167 1.833-3.5 1.5-.76-.19-1.304-.742-1.906-1.353C10.614 13.152 9.478 12 7 12z" />
</svg>
