<svg class="hide-on-small" xmlns="http://www.w3.org/2000/svg" width="32" height="32" viewBox="0 0 32 32">
  <path fill="#fff" d="M16 32q-4.354 0-8.032-2.146-3.677-2.145-5.822-5.822Q0 20.354 0 16t2.146-8.032Q4.29 4.29 7.968 2.146 11.646 0 16 0t8.032 2.146q3.678 2.144 5.822 5.822Q32 11.646 32 16t-2.146 8.032q-2.145 3.677-5.822 5.822Q20.354 32 16 32zm-.03-6.002q.526 0 .876-.35l8.804-8.776Q26 16.524 26 16q0-.525-.35-.874l-8.804-8.778Q16.496 6 15.97 6t-.874.348l-1.77 1.764q-.348.348-.348.872t.35.873L17 13.52H7.244q-.505 0-.875.367-.37.368-.37.873v2.48q0 .504.37.873.364.37.87.368H17l-3.673 3.667q-.37.368-.37.873 0 .503.37.87l1.77 1.764q.348.348.874.348z"></path>
</svg>
