<?xml version="1.0" encoding="UTF-8" standalone="no"?>
<!-- Created with Inkscape (http://www.inkscape.org/) -->

<svg
   xmlns:dc="http://purl.org/dc/elements/1.1/"
   xmlns:cc="http://creativecommons.org/ns#"
   xmlns:rdf="http://www.w3.org/1999/02/22-rdf-syntax-ns#"
   xmlns:svg="http://www.w3.org/2000/svg"
   xmlns="http://www.w3.org/2000/svg"
   xmlns:sodipodi="http://sodipodi.sourceforge.net/DTD/sodipodi-0.dtd"
   xmlns:inkscape="http://www.inkscape.org/namespaces/inkscape"
   width="64"
   height="64"
   viewBox="0 0 64 64"
   version="1.1"
   id="svg936"
   inkscape:version="0.92.2 (5c3e80d, 2017-08-06)"
   sodipodi:docname="arrow-up.svg">
  <defs
     id="defs930" />
  <sodipodi:namedview
     id="base"
     pagecolor="#ffffff"
     bordercolor="#666666"
     borderopacity="1.0"
     inkscape:pageopacity="0.0"
     inkscape:pageshadow="2"
     inkscape:zoom="2.8"
     inkscape:cx="60.776354"
     inkscape:cy="121.54261"
     inkscape:document-units="px"
     inkscape:current-layer="svg936"
     showgrid="false"
     units="px"
     inkscape:window-width="1280"
     inkscape:window-height="962"
     inkscape:window-x="-8"
     inkscape:window-y="-8"
     inkscape:window-maximized="1" />
  <metadata
     id="metadata933">
    <rdf:RDF>
      <cc:Work
         rdf:about="">
        <dc:format>image/svg+xml</dc:format>
        <dc:type
           rdf:resource="http://purl.org/dc/dcmitype/StillImage" />
        <dc:title></dc:title>
      </cc:Work>
    </rdf:RDF>
  </metadata>
  <path
     style="fill:#333333;fill-opacity:1;stroke:#333333;stroke-width:0.80722404;stroke-opacity:0"
     inkscape:connector-curvature="0"
     class="st12"
     d="m 62.048718,36.41098 c 0.161609,-2.74177 0.404022,-5.48355 0.565631,-8.22532 0.161609,-2.90306 -3.555394,-3.54819 -5.090678,-1.69346 0.242413,-1.53216 0.565631,-3.14497 0.808044,-4.67714 0.565631,-3.54818 -4.363438,-4.99971 -5.494699,-1.53217 -0.0808,0.32256 -0.242413,0.72576 -0.323218,1.04832 -0.969653,-1.53217 -3.717003,-1.85473 -4.848264,0 0.161609,-2.17729 0.323217,-4.43522 0.484826,-6.61252 0.161609,-2.82241 -3.232176,-3.46754 -4.848264,-1.77409 -0.404022,-1.12896 -1.616088,-1.85473 -2.74735,-1.93537 0.323218,-2.74177 0.646435,-5.56419 0.969653,-8.30597 0.404022,-3.3869 -4.525047,-3.54818 -5.575504,-0.72576 -0.72724,1.93537 -1.373675,3.95138 -2.100914,5.88675 -1.050458,-1.85473 -4.444243,-2.09665 -5.252287,0.56449 0,0.0806 -0.0808,0.24192 -0.0808,0.32256 0,-0.64513 0.0808,-1.29025 0.0808,-1.85473 C 28.757303,3.59031 24.070648,3.26775 23.02019,6.1708 22.454559,7.86425 21.808124,9.39642 21.00008,11.00923 20.757667,9.31578 19.060774,8.7513 17.525491,9.1545 c 0,-0.64512 -0.0808,-1.20961 -0.0808,-1.85473 C 17.363891,4.23543 12.596427,3.34839 11.869187,6.57401 11.54597,8.02553 11.222752,9.5577 10.899535,11.00923 9.606664,9.71898 6.9401187,10.12219 6.1320746,12.21884 3.9503557,17.78303 2.01105,23.42787 0.15254866,29.15334 c -1.13126167,3.46754 4.36343784,4.91907 5.49469954,1.53217 0.2424132,-0.8064 0.5656308,-1.61281 0.808044,-2.41921 0,0.16128 0,0.24192 0,0.4032 0,0.48384 0.080805,0.88704 0.2424133,1.20961 -0.6464353,3.06433 -1.3736749,6.20931 -2.0201102,9.27365 -0.808044,3.62882 4.1210247,4.83843 5.4138947,1.53217 0.161609,-0.32256 0.242414,-0.56448 0.404022,-0.88705 -0.242413,2.25794 -0.484826,4.51587 -0.7272391,6.85445 -0.2424133,2.74177 4.0402201,3.87074 5.2522861,1.45152 0.565631,-1.12896 1.050457,-2.25793 1.616088,-3.3869 -0.808044,3.30626 -1.616088,6.61252 -2.504936,9.99942 -0.888849,3.54819 4.444242,4.99971 5.494699,1.53217 0.484827,-1.61281 0.888849,-3.22562 1.373675,-4.75779 0.161609,0.0806 0.404022,0.0806 0.646435,0.0806 -0.0808,0.48384 -0.242413,1.04832 -0.404022,1.53216 -0.808044,3.54819 4.686656,5.08035 5.413895,1.53217 0.565631,-2.49985 1.212067,-4.99971 1.858502,-7.49956 0.404022,-0.0806 0.727239,-0.32256 1.050457,-0.64513 -0.72724,4.03203 -1.454479,8.14469 -2.181719,12.17672 -0.646435,3.54818 4.282634,4.99971 5.4947,1.53217 1.29287,-3.70947 2.504936,-7.49957 3.797807,-11.20903 -0.404022,2.5805 -0.888849,5.08035 -1.45448,7.66085 -0.56563,2.58049 2.181719,4.11266 4.040221,3.30626 0,0.48384 -0.0808,0.88704 -0.0808,1.37088 -0.242413,3.3869 4.444243,3.46754 5.575504,0.72577 0.888849,-2.25794 1.777697,-4.59651 2.585741,-6.85444 0.808044,2.09665 3.878612,3.30626 5.009873,0.72576 1.050458,-2.41921 2.100915,-4.91907 3.151372,-7.33828 -0.0808,1.37089 -0.161609,2.66113 -0.242413,4.03202 -0.242413,3.14498 4.848264,3.87074 5.575504,0.72577 1.050457,-4.35459 2.02011,-8.78982 3.070567,-13.1444 0.404022,-2.09666 -0.565631,-3.30626 -1.858501,-3.79011 z M 42.655661,29.39526 c -0.08081,0 -0.08081,0.0806 -0.08081,0.0806 -0.808044,1.04833 -1.939305,0.80641 -2.908958,0.48385 -0.72724,-0.24193 -1.131262,-0.88705 -1.616088,-1.45153 -0.0808,-0.16128 -0.242414,-0.32256 -0.404022,-0.48385 -0.242414,0.40321 -0.242414,0.80641 -0.242414,1.20961 0,1.29025 -0.0808,2.5805 0.0808,3.87074 0.0808,0.72577 0,1.37089 0,2.01602 -0.0808,0.96768 -0.0808,1.93537 -0.161609,2.90305 0,0.40321 0.0808,0.72577 0,1.12897 -0.161609,0.72577 -0.0808,1.45153 0.0808,2.17729 0.0808,0.40321 0.242414,0.72577 0.242414,1.12897 0,0.4032 -0.161609,0.72576 -0.242414,1.12897 -0.323217,1.12896 -0.56563,2.33857 -1.696892,3.06434 -0.565631,0.4032 -1.373675,0.48384 -2.02011,0.32256 -0.484827,-0.0806 -0.969653,-0.4032 -1.373675,-0.64513 -0.242413,-0.0806 -0.404022,-0.24192 -0.565631,-0.4032 -0.161609,-0.16128 -0.242413,-0.48384 -0.323218,-0.72576 -0.161608,-0.56449 -0.242413,-1.20961 -0.404022,-1.85473 -0.161608,-0.72577 -0.242413,-1.61281 -0.242413,-2.33858 -0.0808,-1.77409 0,-3.54818 0.242413,-5.32227 0.08081,-0.72576 0.242414,-1.53217 0.242414,-2.25793 0,-0.56449 -0.0808,-1.04833 -0.242414,-1.53217 -0.242413,-0.56449 -0.242413,-0.88705 -0.242413,-1.45153 0,-0.0806 -0.0808,-0.16128 -0.161609,-0.4032 -0.0808,0.24192 -0.161608,0.32256 -0.242413,0.4032 -0.161609,0.56448 -0.484826,0.96768 -1.050457,1.20961 -0.323218,0.16128 -0.72724,0.4032 -0.969653,0.64512 -0.484826,0.4032 -1.373675,0.88704 -2.100915,0.88704 -0.727239,0 -1.454479,-0.48384 -2.181718,-0.56448 -0.0808,0 -0.161609,0 -0.242414,-0.0806 -0.0808,0 -0.161608,-0.0806 -0.242413,-0.16128 -0.484826,-0.48384 -1.050457,-1.37089 -0.808044,-2.17729 0.242413,-0.64513 0.888849,-1.12897 1.212066,-1.77409 0.484827,-0.96769 1.050457,-1.93538 1.535284,-2.90306 0.888848,-1.85473 1.858501,-3.62882 2.343328,-5.64483 0.242413,-0.88705 0.646435,-1.7741 0.808044,-2.66114 0.161608,-0.64512 0.404022,-1.12897 0.808044,-1.61281 0.323217,-0.48384 0.808044,-0.72576 1.29287,-0.64512 0.646435,0.0806 1.131262,-0.16129 1.616088,-0.40321 0.404022,-0.16128 0.72724,-0.24192 1.131262,-0.0806 0.161609,0.0806 0.404022,0.16128 0.565631,0.16128 0.727239,-0.0806 1.29287,0.32257 1.858501,0.64513 0.0808,0.0806 0.242413,0.16128 0.242413,0.24192 0.0808,0.48384 0.565631,0.72576 0.72724,1.12897 0.242413,0.48384 0.484826,0.8064 0.808044,1.2096 0.404022,0.56449 0.646435,1.20961 1.050457,1.77409 0.161609,0.24193 0.323218,0.56449 0.484827,0.80641 0.323217,0.48384 0.646435,0.96768 0.969653,1.53217 0.646435,0.96768 1.29287,1.93537 1.858501,2.90306 0.565631,0.88704 1.050457,1.69345 1.535284,2.58049 0.161608,0.24192 0.242413,0.56448 0.323217,0.96769 -0.404022,0.24192 -0.565631,0.8064 -1.29287,0.96768 z"
     id="path2626" />
</svg>
