<svg xmlns="http://www.w3.org/2000/svg" width="32" height="32" viewBox="0 0 32 32">
  <path fill="#fff" d="M16 32q4.354 0 8.032-2.146 3.677-2.145 5.822-5.822Q32 20.354 32 16t-2.146-8.032Q27.71 4.29 24.032 2.146 20.354 0 16 0T7.968 2.146Q4.29 4.29 2.146 7.968 0 11.646 0 16t2.146 8.032q2.145 3.677 5.822 5.822Q11.646 32 16 32zm.03-6.002q-.526 0-.876-.35L6.35 16.872Q6 16.524 6 16q0-.525.35-.874l8.804-8.778Q15.504 6 16.03 6t.874.348l1.77 1.764q.348.348.348.872t-.35.873L15 13.52h9.756q.505 0 .875.367.37.368.37.873v2.48q0 .504-.37.873-.364.37-.87.368H15l3.673 3.667q.37.368.37.873 0 .503-.37.87l-1.77 1.764q-.348.348-.874.348z"></path>
</svg>
