<svg role="icon" width="64" height="64" viewBox="0 0 32 32">
  <path fill="#333" d="M32 16q0 4.354-2.146 8.032-2.145 3.677-5.822 5.822Q20.354 32 16 32t-8.032-2.146Q4.29 27.71 2.146 24.032 0 20.354 0 16t2.146-8.032Q4.29 4.29 7.968 2.146 11.646 0 16 0t8.032 2.146q3.677 2.145 5.822 5.822Q32 11.646 32 16zm-6.002.03q0-.526-.35-.876L16.872 6.35Q16.524 6 16 6q-.525 0-.874.35l-8.778 8.804Q6 15.504 6 16.03t.348.874l1.764 1.77q.348.348.872.348t.873-.35L13.52 15v9.756q0 .505.367.875.368.37.873.37h2.48q.504 0 .873-.37.37-.368.368-.874V15l3.663 3.673q.368.37.873.37.504 0 .872-.37l1.764-1.77q.348-.348.348-.874z"/>
</svg>
