<?xml version="1.0" encoding="UTF-8" standalone="no"?>
<!-- Created with Inkscape (http://www.inkscape.org/) -->

<svg
   xmlns:dc="http://purl.org/dc/elements/1.1/"
   xmlns:cc="http://creativecommons.org/ns#"
   xmlns:rdf="http://www.w3.org/1999/02/22-rdf-syntax-ns#"
   xmlns:svg="http://www.w3.org/2000/svg"
   xmlns="http://www.w3.org/2000/svg"
   xmlns:sodipodi="http://sodipodi.sourceforge.net/DTD/sodipodi-0.dtd"
   xmlns:inkscape="http://www.inkscape.org/namespaces/inkscape"
   width="40.5"
   height="32"
   viewBox="0 0 10.715625 8.4666672"
   version="1.1"
   id="svg2084"
   inkscape:version="0.92.2 (5c3e80d, 2017-08-06)"
   sodipodi:docname="arrow-right.svg">
  <defs
     id="defs2078" />
  <sodipodi:namedview
     id="base"
     pagecolor="#ffffff"
     bordercolor="#666666"
     borderopacity="1.0"
     inkscape:pageopacity="0.0"
     inkscape:pageshadow="2"
     inkscape:zoom="5.6"
     inkscape:cx="33.97257"
     inkscape:cy="31.449598"
     inkscape:document-units="px"
     inkscape:current-layer="svg2084"
     showgrid="false"
     units="px"
     inkscape:window-width="1280"
     inkscape:window-height="962"
     inkscape:window-x="-8"
     inkscape:window-y="-8"
     inkscape:window-maximized="1" />
  <metadata
     id="metadata2081">
    <rdf:RDF>
      <cc:Work
         rdf:about="">
        <dc:format>image/svg+xml</dc:format>
        <dc:type
           rdf:resource="http://purl.org/dc/dcmitype/StillImage" />
        <dc:title></dc:title>
      </cc:Work>
    </rdf:RDF>
  </metadata>
  <path
     style="fill:#ffffff;fill-opacity:1;stroke-width:0.14515656"
     inkscape:connector-curvature="0"
     class="st12"
     d="m 10.00874,3.21265 c -0.014516,0.0145 -0.029031,0.029 -0.043547,0.029 C 10.182928,3.0094 10.386147,2.77715 10.603882,2.53038 10.908711,2.18201 10.502272,1.51429 10.066803,1.83363 9.7039109,2.09491 9.3555352,2.37071 9.0216751,2.66102 9.1087691,2.57392 9.1813473,2.47232 9.2684412,2.38522 9.6023013,2.00782 9.1958632,1.51429 8.8039402,1.64493 8.7603932,1.5288 8.6732993,1.42719 8.5571741,1.36913 8.5862051,1.35463 8.6152371,1.32553 8.6442681,1.31103 9.0942535,0.97717 8.6587841,0.20784 8.1942828,0.5417 8.0636419,0.64331 7.933001,0.7304 7.8168757,0.83201 7.7007505,0.75941 7.5410783,0.75941 7.4104374,0.84651 7.3233434,0.90461 7.2362495,0.96264 7.1491556,1.0207 7.2072186,0.9481 7.2652808,0.86103 7.3233434,0.78845 7.5991409,0.42556 7.0765773,-0.03894 6.7136859,0.17879 6.6701389,0.20779 6.6265919,0.23689 6.583045,0.26589 6.4814354,0.04815 6.2346692,-0.097 5.9733874,0.07719 c -0.087094,0.0581 -0.1596722,0.1016 -0.2467661,0.15967 -0.043547,0.0145 -0.087094,0.0435 -0.1306409,0.0871 0,0 -0.014516,0.0145 -0.014516,0.0145 C 5.305667,0.52716 5.0153538,0.71586 4.7395564,0.90457 5.0443851,0.51264 4.4492432,-0.03895 4.0573205,0.33846 3.6944291,0.67232 3.3315377,0.99166 2.9686463,1.31101 c -0.058063,0 -0.1161252,0 -0.1741878,0.029 C 2.6928489,1.12227 2.4460827,0.99163 2.2138322,1.18034 1.5751434,1.65935 0.95097018,2.15288 0.37034394,2.70448 0.05099951,2.99479 0.38485964,3.60445 0.80581362,3.44478 0.90742321,3.41578 1.0090328,3.37218 1.0961267,3.32865 0.73323534,3.74961 0.37034394,4.18508 0.06551517,4.67861 -0.12318836,4.98344 0.16712476,5.37536 0.48646919,5.36084 0.39937529,5.49148 0.31228132,5.60761 0.23970304,5.73825 0.10906213,5.94147 0.21067174,6.20275 0.3848596,6.33339 0.1526091,6.75435 0.67517272,7.23336 1.0816111,6.87047 1.1832206,6.78337 1.2848302,6.68177 1.3864398,6.59467 1.3574088,6.63817 1.3283768,6.66727 1.2993458,6.7108 0.95097008,7.1753 1.7348155,7.61077 2.0686756,7.16079 2.2283478,6.94305 2.4025357,6.73983 2.5767235,6.53661 2.5622075,6.55111 2.5622075,6.56561 2.5476925,6.58021 2.2864107,7.03019 2.8670369,7.45115 3.244444,7.11729 3.3750849,7.00116 3.5057258,6.88504 3.6363667,6.76891 3.5928197,6.84151 3.5637887,6.91407 3.5202415,6.97213 3.287991,7.4076 3.8541016,7.88662 4.216993,7.50921 4.4492434,7.26244 4.6960096,7.01568 4.9282601,6.7544 c -0.014516,0.029 -0.029031,0.0726 -0.058063,0.10161 -0.1016096,0.1887 -0.043547,0.40643 0.087094,0.53708 -0.014516,0.029 -0.043547,0.0581 -0.058063,0.0871 C 4.6379463,7.84308 5.1459942,8.33661 5.5088856,8.08985 5.6250109,8.01725 5.7266205,7.93018 5.8282301,7.8576 5.6975892,8.26404 6.2201528,8.6995 6.5540129,8.3221 6.6991694,8.16243 6.844326,8.00275 6.9894825,7.84308 7.0475455,8.10436 7.3668896,8.29307 7.6426871,8.13339 8.2813759,7.7705 8.8910335,7.37858 9.4716597,6.94311 9.9216451,6.60925 10.589365,6.24636 10.589365,5.60767 10.589365,5.3609 10.415177,5.21575 10.226474,5.18672 10.255504,4.96898 10.095833,4.76576 9.9071294,4.69318 10.124864,4.4319 10.342599,4.17062 10.560334,3.90934 10.850647,3.54645 10.444209,2.89324 10.008739,3.21259 Z M 8.4265333,3.3578 C 8.4120173,3.57554 8.3684703,3.76424 8.310408,3.96746 8.281377,4.05456 8.266861,4.14165 8.252345,4.22874 c -0.014516,0.0581 0,0.11613 -0.014516,0.18871 C 8.223313,4.46095 8.208798,4.51906 8.194282,4.5626 8.136219,4.79485 8.0200941,4.98356 7.9184845,5.18678 7.8459065,5.34645 7.729781,5.4916 7.686234,5.65128 7.642687,5.79643 7.5846244,5.95611 7.5555931,6.11578 7.5265621,6.2319 7.4394679,6.319 7.3814053,6.42061 c 0,0 0,0 -0.014516,0 -0.029031,0.0145 -0.058063,0.0435 -0.087094,0.0435 C 7.1491544,6.43511 7.0475448,6.59475 6.9169039,6.53671 6.8298099,6.50771 6.742716,6.49321 6.6556221,6.46411 6.5540125,6.42061 6.5249812,6.33347 6.4814342,6.23186 c -0.014516,-0.0145 0,-0.0435 0,-0.0581 C 6.5394972,6.04312 6.5830438,5.89796 6.6411064,5.76732 6.7136844,5.59313 6.8007786,5.41895 6.8878726,5.25927 6.9459356,5.14315 7.0185135,5.02702 7.0910917,4.92541 7.0185137,4.83831 6.9459352,4.83831 6.8588412,4.86731 6.742716,4.91081 6.6120751,4.95441 6.4959498,4.98344 c -0.1016095,0.029 -0.2177348,0.029 -0.3193444,0.10161 -0.029031,0.0145 -0.072578,0.0145 -0.1161252,0.029 -0.2322505,0.0145 -0.464501,0.0435 -0.6967515,0.0581 -0.1741879,0.0145 -0.3628914,0 -0.551595,0 -0.014516,0 -0.043547,0 -0.058063,0 -0.1161252,0.0581 -0.2467661,0.0726 -0.3628914,0.0581 -0.014516,0 -0.029031,0 -0.043547,0.0145 -0.2467662,0.0581 -0.508048,0.0726 -0.7693298,0.0726 -0.1161253,0 -0.2177349,0 -0.3338601,0.0145 -0.1887035,0.0145 -0.3628914,-0.029 -0.5370793,-0.0581 -0.029031,0 -0.058063,-0.029 -0.087094,-0.0435 C 2.5912381,5.21575 2.5622061,5.18675 2.5331751,5.17215 2.4315655,5.15765 2.3880185,5.07054 2.3299559,4.99796 2.2718929,4.91086 2.2138306,4.83829 2.1702837,4.7512 2.1412527,4.7077 2.1267367,4.63507 2.1267367,4.59152 c 0,-0.0871 -0.014516,-0.17418 0.043547,-0.26128 0.014516,-0.0145 0,-0.0435 0,-0.0726 0,-0.10161 0.058063,-0.13064 0.1451565,-0.10161 0,0 0.014516,0 0.014516,0 0.1161252,0.10161 0.2467661,0.0726 0.377407,0.0435 0.3338601,-0.0581 0.6532045,-0.11612 0.9870646,-0.17419 0.1596723,-0.029 0.3048288,-0.0726 0.464501,-0.10161 0.1741879,-0.029 0.3483758,-0.0435 0.508048,-0.0726 0.1161252,-0.0145 0.2322505,-0.029 0.3483757,-0.0581 0.2467662,-0.0581 0.4935323,-0.11612 0.7402985,-0.17418 0.1596722,-0.029 0.3338601,-0.0581 0.4935323,-0.0871 0.1016096,-0.0145 0.2177348,-0.0436 0.3193444,-0.0581 0.072578,-0.0145 0.072578,-0.0726 0.029031,-0.11613 -0.014516,-0.0145 -0.029031,-0.029 -0.043547,-0.029 C 6.4088551,3.25592 6.2636985,3.18337 6.1330576,3.11079 6.1040266,3.09629 6.0895106,3.08179 6.0604796,3.06729 6.0459636,3.05279 6.0169326,3.02369 6.0024166,3.00919 5.8862914,2.93659 5.7701661,2.86403 5.6540409,2.79145 5.6250099,2.77695 5.5959779,2.74795 5.5524313,2.71885 5.2911495,2.51564 4.8992268,2.32693 4.5653667,2.26887 4.5798827,2.16726 4.5508507,2.08017 4.5363357,1.97856 4.5218197,1.61566 5.0879306,1.45599 5.3782437,1.48502 c 0.2032192,0.0145 0.4499854,0.10161 0.5951419,0.26129 0.058063,0.0581 0.1161253,0.11612 0.1596722,0.17418 0.014516,0.0145 0.014516,0.0145 0.029031,0.0145 0.2177348,0.0581 0.377407,0.20322 0.5661105,0.29031 0.043547,0.0145 0.072578,0.0726 0.1161253,0.10161 0.1016096,0.0726 0.2032192,0.13064 0.3193444,0.18871 0.014516,0 0.014516,0 0.029031,0.0145 0.1161253,0.15967 0.3048288,0.17419 0.464501,0.2758 0.087094,0.0581 0.1887036,0.10161 0.2757975,0.14516 0.1016096,0.0435 0.2177348,0.0726 0.3193444,0.13064 0.1596722,0.029 0.1887035,0.13064 0.1741879,0.27579 z"
     id="path2566" />
</svg>
