<?xml version="1.0" encoding="UTF-8" standalone="no"?>
<!-- Created with Inkscape (http://www.inkscape.org/) -->

<svg
   xmlns:dc="http://purl.org/dc/elements/1.1/"
   xmlns:cc="http://creativecommons.org/ns#"
   xmlns:rdf="http://www.w3.org/1999/02/22-rdf-syntax-ns#"
   xmlns:svg="http://www.w3.org/2000/svg"
   xmlns="http://www.w3.org/2000/svg"
   xmlns:sodipodi="http://sodipodi.sourceforge.net/DTD/sodipodi-0.dtd"
   xmlns:inkscape="http://www.inkscape.org/namespaces/inkscape"
   width="37"
   height="32"
   viewBox="0 0 37 32.000001"
   version="1.1"
   id="svg1510"
   inkscape:version="0.92.2 (5c3e80d, 2017-08-06)"
   sodipodi:docname="arrow-left.svg">
  <defs
     id="defs1504" />
  <sodipodi:namedview
     id="base"
     pagecolor="#ffffff"
     bordercolor="#666666"
     borderopacity="1.0"
     inkscape:pageopacity="0.0"
     inkscape:pageshadow="2"
     inkscape:zoom="5.6"
     inkscape:cx="25.752344"
     inkscape:cy="16.940127"
     inkscape:document-units="px"
     inkscape:current-layer="svg1510"
     showgrid="false"
     units="px"
     inkscape:window-width="1280"
     inkscape:window-height="962"
     inkscape:window-x="-8"
     inkscape:window-y="-8"
     inkscape:window-maximized="1" />
  <metadata
     id="metadata1507">
    <rdf:RDF>
      <cc:Work
         rdf:about="">
        <dc:format>image/svg+xml</dc:format>
        <dc:type
           rdf:resource="http://purl.org/dc/dcmitype/StillImage" />
        <dc:title></dc:title>
      </cc:Work>
    </rdf:RDF>
  </metadata>
  <path
     style="fill:#ffffff;fill-opacity:1;stroke-width:0.45909747"
     inkscape:connector-curvature="0"
     class="st12"
     d="m 34.903775,15.3958 c 0.13773,-0.9641 0.229549,-1.9282 0.275459,-2.8923 0.09182,-1.6527 -2.203668,-2.1118 -2.984134,-0.8263 -0.04591,0.092 -0.09182,0.1377 -0.137729,0.2295 -0.275458,-0.5509 -0.826375,-0.8723 -1.423202,-0.9182 0.09182,-0.3214 0.183639,-0.6886 0.321368,-1.01 C 31.460544,8.3717 29.119147,7.2239 28.200952,8.4635 28.017313,8.2798 27.741855,8.1421 27.512306,8.0503 27.604126,7.7748 27.695945,7.5453 27.787764,7.2698 28.338681,5.7089 26.502292,4.8825 25.354548,5.5712 25.400458,5.3875 25.446368,5.2039 25.492277,5.0202 25.859555,3.3216 23.380429,2.082 22.554053,3.7807 22.094956,4.6989 21.681768,5.5712 21.22267,6.4894 21.3604,5.4793 20.534024,4.8366 19.707649,4.7907 19.983107,3.8266 20.258566,2.9084 20.534024,1.9902 21.084941,0.1997 18.513995,-0.7644 17.5958,0.7506 16.631696,2.3116 15.75941,3.9643 14.978945,5.6171 14.933035,4.4693 13.647562,3.8266 12.729367,4.1939 12.683457,3.7348 12.637547,3.2298 12.545728,2.7707 12.27027,1.3934 10.250241,1.2556 9.6075037,2.4034 8.643399,4.148 7.7252041,5.8925 6.8070091,7.683 6.8988291,7.2698 6.9447384,6.8566 7.0365579,6.3975 7.3579261,4.7448 5.6133557,3.8266 4.3737925,4.8366 2.812861,6.0762 1.5273881,7.4994 0.37964442,9.1062 c -1.10183395,1.5609 1.23956318,3.076 2.52503608,1.8823 -0.5509169,2.8464 -1.0559242,5.6928 -1.6068411,8.4933 -0.32136826,1.6528 2.1577581,3.0301 2.9382238,1.2396 0.091819,-0.1837 0.1377293,-0.3214 0.2295488,-0.505 0.4590975,0.505 1.1477437,0.7804 1.6986606,0.5509 -0.3672779,1.6068 -0.7345559,3.2137 -1.1477437,4.8664 -0.4131877,1.8364 1.9282095,2.7546 2.9382239,1.2396 0.5050072,-0.7346 0.9641047,-1.4691 1.4232022,-2.2037 0.4131877,0.2755 1.055925,0.3673 1.606842,0.2296 -0.413188,1.6986 -0.780466,3.3514 -1.1936543,5.05 -0.3672779,1.6987 2.1118493,2.9383 2.9382243,1.2396 0.642737,-1.2855 1.285473,-2.6169 1.92821,-3.9023 0.137729,1.01 1.239563,1.515 2.157758,1.2395 -0.09182,1.7905 2.479126,2.3873 3.121863,0.5509 0.642736,-1.8363 1.331382,-3.6727 1.974119,-5.5091 0,0 0,0 0,0 -0.367278,1.01 -0.734556,2.02 -1.101834,3.0759 -0.688646,1.9742 2.433216,2.8005 3.121863,0.8723 0.321368,-0.8723 0.642736,-1.7446 0.964104,-2.6627 0,0.5509 0.04591,1.1018 0.09182,1.6527 0.137729,1.7446 2.662765,2.2496 3.167772,0.4132 0.642737,-2.4332 1.652751,-4.6369 2.800495,-6.7487 -0.367278,2.1577 -0.734556,4.3614 -0.826375,6.5651 -0.09182,1.8823 2.616855,2.1118 3.167772,0.4131 0.505007,-1.6527 1.055924,-3.3055 1.560932,-5.0041 0.459097,-1.515 0.780465,-3.1678 1.74457,-4.4074 0.918195,-1.2854 -0.413188,-2.525 -1.698661,-2.3414 z m -4.315516,1.4232 c -0.137729,0.2296 -0.183639,0.4132 -0.229549,0.6428 0,0.4132 -0.229548,0.5968 -0.642736,0.6427 -0.04591,0 -0.09182,0 -0.137729,0 -0.229549,-0.2295 -0.550917,-0.1377 -0.826376,-0.1377 -0.642736,0.046 -1.285473,0 -1.8823,0.046 -0.505007,0.046 -1.055924,0 -1.560931,0.1377 -0.229549,0.046 -0.459097,0.046 -0.688646,0.046 -1.010015,0 -1.974119,0.1837 -2.984134,0.092 -1.010014,-0.092 -1.974119,0 -2.984133,0 0,0.046 -0.04591,0.092 -0.04591,0.092 0.04591,0.046 0.137729,0.1377 0.183639,0.1836 0.275458,0.2296 0.505007,0.4591 0.596827,0.8264 0.09182,0.3673 0.275458,0.7345 0.367278,1.1477 0.04591,0.1837 0,0.4132 0,0.5969 0,0.4591 -0.183639,1.01 -0.275459,1.4691 -0.04591,0.2295 -0.09182,0.4591 -0.229549,0.6427 -0.137729,0.1837 -0.413187,0.3214 -0.596826,0.2296 -0.09182,-0.046 -0.183639,-0.092 -0.229549,-0.1378 -0.183639,-0.092 -0.367278,-0.092 -0.550917,-0.1377 -0.321368,-0.092 -0.550917,-0.2755 -0.826376,-0.4591 -0.596826,-0.4591 -1.331382,-0.7346 -2.020028,-1.1018 -0.413188,-0.2296 -0.780466,-0.5509 -1.193654,-0.8264 -0.321368,-0.2296 -0.688646,-0.4132 -1.055924,-0.5968 -0.413188,-0.2296 -0.872285,-0.4132 -1.285473,-0.6428 -0.09182,-0.046 -0.137729,-0.1377 -0.229549,-0.2295 -0.09182,-0.092 -0.229549,-0.2296 -0.321368,-0.3214 -0.137729,-0.3673 -0.183639,-0.8264 -0.413188,-1.1936 -0.09182,-0.092 -0.09182,-0.2755 -0.137729,-0.4132 -0.09182,-0.4132 -0.137729,-0.8723 -0.229549,-1.2855 0,-0.092 0,-0.1836 0.04591,-0.2755 0.04591,-0.2295 0.09182,-0.4591 -0.09182,-0.6427 0.04591,-0.1836 0.09182,-0.3214 0.09182,-0.4591 0,-0.1836 0.09182,-0.3673 0.275458,-0.4591 0.09182,-0.046 0.183639,-0.092 0.275459,-0.1377 0.642736,-0.2296 0.918195,-0.8723 1.377292,-1.2855 0.459098,-0.4132 0.826376,-0.8723 1.423203,-1.0559 0.09182,0 0.137729,-0.092 0.229548,-0.1377 0.183639,-0.092 0.321369,-0.1837 0.505008,-0.3214 0.09182,-0.046 0.229548,-0.092 0.275458,-0.1837 0.321368,-0.3672 0.734556,-0.505 1.193653,-0.6427 0.229549,-0.092 0.459098,-0.2754 0.688647,-0.4132 0.550917,-0.3213 1.010014,-0.6886 1.652751,-0.8264 0.04591,0 0.09182,-0.046 0.137729,-0.092 0.321368,-0.1836 0.550917,-0.092 0.734556,0.2296 0.275458,0.4591 0.229549,1.01 0.367278,1.4691 0.04591,0.1836 0.04591,0.3673 0.275458,0.4591 0.413188,0.2754 0.550917,0.7805 0.413188,1.2855 -0.183639,0.5968 -0.550917,1.0559 -1.010014,1.4691 -0.13773,0.1377 -0.229549,0.2295 -0.413188,0.4132 0.688646,0 1.331383,0.046 1.928209,-0.1378 0.13773,-0.046 0.321369,-0.092 0.505008,-0.092 0.413187,0 0.826375,-0.046 1.193653,-0.1836 0.04591,0 0.09182,0 0.137729,-0.046 0.367278,-0.3673 0.918195,-0.4132 1.377293,-0.5969 0.137729,-0.046 0.229548,-0.1377 0.321368,-0.1836 0.550917,-0.046 1.055924,-0.092 1.606841,-0.1836 0.09182,0 0.183639,-0.1378 0.321368,-0.1378 0.229549,-0.046 0.413188,-0.1836 0.642737,0 0.04591,0.046 0.137729,0 0.183639,0 0.137729,0 0.321368,-0.046 0.459097,-0.046 0.642737,0 1.239563,0.1377 1.8823,0.2296 0,0 0.04591,0 0.04591,0 0.413187,0.4132 1.101834,0.5509 1.193653,1.2854 0.04591,0.3214 0.229549,0.6428 0.321368,0.9641 0.04591,0.1378 0.04591,0.2755 0.04591,0.4132 0,0.092 -0.04591,0.1837 0,0.2296 0.09182,0.3213 -0.09182,0.5509 -0.183639,0.7804 z"
     id="path2628" />
</svg>
