<svg role="icon" class="contact-icon" width="72" height="72" viewBox="0 0 24 24">
  <path fill="#f0694b" d="M15.634 18.78c-.755 0-1.365-.607-1.365-1.36 0-.75.61-1.357 1.363-1.357.756 0 1.366.607 1.366 1.358 0 .754-.61 1.36-1.367 1.36zm-3.186-6.183V8.975H17v3.622h-4.552zm-.896 0H7V8.975h4.552v3.622zM8.366 18.78C7.61 18.78 7 18.173 7 17.42c0-.75.61-1.357 1.366-1.357.755 0 1.365.607 1.365 1.358 0 .754-.61 1.36-1.363 1.36zM19 16.94V8.5c0-2.79-2.61-3.4-6.01-3.49l.76-1.51H17V2H7v1.5h4.75l-.76 1.52C7.86 5.11 5 5.73 5 8.5v8.44c0 1.45 1.19 2.66 2.59 2.97L6 21.5v.5h2.23l2-2H14l2 2h2v-.5L16.5 20h-.08c1.69 0 2.58-1.37 2.58-3.06z"></path>
</svg>
