<svg version="1.1" width="100%" height="100%" xmlns="http://www.w3.org/2000/svg" xmlns:xlink="http://www.w3.org/1999/xlink" viewBox="0 0 100 100" class="block w-56 h-56"><rect width="100%" height="100%" fill="none" stroke-width="0px"/><path fill="#4F5D95" d="M17.49 62.97A35 35 0 1 0 50 15L50 0A50 50 0 1 1 3.56 68.53z"/><path fill="none" d="M17.26 62.36A35 35 0 0 0 17.49 62.97L3.56 68.53A50 50 0 0 1 3.22 67.66z"/><path fill="#2b7489" d="M25.29 25.21A35 35 0 0 0 17.26 62.36L3.22 67.66A50 50 0 0 1 14.7 14.59z"/><path fill="none" d="M25.75 24.76A35 35 0 0 0 25.29 25.21L14.7 14.59A50 50 0 0 1 15.36 13.94z"/><path fill="#3572A5" d="M36.33 17.78A35 35 0 0 0 25.75 24.76L15.36 13.94A50 50 0 0 1 30.47 3.97z"/><path fill="none" d="M36.93 17.53A35 35 0 0 0 36.33 17.78L30.47 3.97A50 50 0 0 1 31.33 3.62z"/><path fill="#563d7c" d="M44.83 15.38A35 35 0 0 0 36.93 17.53L31.33 3.62A50 50 0 0 1 42.62 0.55z"/><path fill="none" d="M45.48 15.29A35 35 0 0 0 44.83 15.38L42.62 0.55A50 50 0 0 1 43.54 0.42z"/><path fill="#89e051" d="M48.06 15.05A35 35 0 0 0 45.48 15.29L43.54 0.42A50 50 0 0 1 47.22 0.08z"/><path fill="none" d="M48.7 15.02A35 35 0 0 0 48.06 15.05L47.22 0.08A50 50 0 0 1 48.15 0.03z"/><path fill="#41b883" d="M49.35 15.01A35 35 0 0 0 48.7 15.02L48.15 0.03A50 50 0 0 1 49.07 0.01z"/><path fill="none" d="M50 15A35 35 0 0 0 49.35 15.01L49.07 0.01A50 50 0 0 1 50 0z"/></svg>
