<?xml version="1.0" encoding="UTF-8" standalone="no"?>
<svg
   xmlns:dc="http://purl.org/dc/elements/1.1/"
   xmlns:cc="http://creativecommons.org/ns#"
   xmlns:rdf="http://www.w3.org/1999/02/22-rdf-syntax-ns#"
   xmlns:svg="http://www.w3.org/2000/svg"
   xmlns="http://www.w3.org/2000/svg"
   xmlns:sodipodi="http://sodipodi.sourceforge.net/DTD/sodipodi-0.dtd"
   xmlns:inkscape="http://www.inkscape.org/namespaces/inkscape"
   viewBox="0 0 14 14"
   version="1.1"
   id="svg4"
   sodipodi:docname="bike.svg"
   inkscape:version="1.0rc1 (09960d6f05, 2020-04-09)">
  <metadata
     id="metadata10">
    <rdf:RDF>
      <cc:Work
         rdf:about="">
        <dc:format>image/svg+xml</dc:format>
        <dc:type
           rdf:resource="http://purl.org/dc/dcmitype/StillImage" />
      </cc:Work>
    </rdf:RDF>
  </metadata>
  <defs
     id="defs8" />
  <sodipodi:namedview
     inkscape:document-rotation="0"
     pagecolor="#ffffff"
     bordercolor="#666666"
     borderopacity="1"
     objecttolerance="10"
     gridtolerance="10"
     guidetolerance="10"
     inkscape:pageopacity="0"
     inkscape:pageshadow="2"
     inkscape:window-width="1920"
     inkscape:window-height="1080"
     id="namedview6"
     showgrid="false"
     inkscape:zoom="20.214286"
     inkscape:cx="-11.58389"
     inkscape:cy="7.2335243"
     inkscape:window-x="0"
     inkscape:window-y="0"
     inkscape:window-maximized="1"
     inkscape:current-layer="svg4" />
  <circle
     style="fill:#fca94d;fill-opacity:1;stroke:none;stroke-width:2.2987;stroke-opacity:1"
     id="path835"
     cx="7"
     cy="7"
     r="7" />
  <path
     d="m 8.1507062,4.4575309 h 0.057858 A 0.16714262,0.16714262 0 0 0 8.3757059,4.2839598 0.16714262,0.16714262 0 0 0 8.2085633,4.1168172 h -0.057858 a 0.17035692,0.17035692 0 1 0 0,0.3407137 M 6.9935651,5.646815 h 0.1092854 a 0.17035695,0.17035695 0 1 0 0,-0.3407139 H 6.9999936 A 0.16714262,0.16714262 0 0 0 6.832851,5.4732438 c 0,0.096429 0.070714,0.1735712 0.1671426,0.1735712 m 2.6164242,3.3878522 0.045,0.019285 0.057854,0.00642 c 0.064276,0 0.135,-0.045 0.1607138,-0.115714 A 0.17357119,0.17357119 0 0 0 9.7707032,8.7325248 l -0.025724,-0.012858 a 0.16714262,0.16714262 0 0 0 -0.2185707,0.096428 0.16071406,0.16071406 0 0 0 0.089999,0.2185711 m 0.5464285,0 a 0.16071406,0.16071406 0 0 0 0.06428,-0.00642 0.80357027,0.80357027 0 0 0 0.289285,-1.2728554 0.16714262,0.16714262 0 0 0 -0.237856,-0.012858 0.16071406,0.16071406 0 0 0 0,0.2378569 0.46285648,0.46285648 0 0 1 -0.167143,0.7328561 0.16714262,0.16714262 0 0 0 -0.09,0.2249997 c 0.02572,0.064285 0.09,0.1028569 0.154286,0.1028569 M 3.4642843,8.1089543 A 0.17357119,0.17357119 0 0 0 3.6957125,8.0446688 V 8.0253833 A 0.16714262,0.16714262 0 0 0 3.6571408,7.793955 0.16714262,0.16714262 0 0 0 3.419284,7.8325268 c 0,0.019285 -0.019285,0.025715 -0.025715,0.045 a 0.16714262,0.16714262 0 0 0 0.057858,0.2314283 m 0.6428564,0.9899984 c 0.1285712,0 0.2571424,-0.038572 0.3792852,-0.096428 A 0.17111379,0.17111379 0 0 0 4.3128545,8.700382 0.46285648,0.46285648 0 0 1 3.6314269,8.3725254 c 0,-0.09 -0.102857,-0.1542856 -0.1928568,-0.1349999 A 0.17357119,0.17357119 0 0 0 3.2971418,8.4303824 c 0.064285,0.3857137 0.3985707,0.6685705 0.7907131,0.6685705 m 0,-2.05714 c 0.160714,0 0.308571,0.032142 0.4499993,0.083571 L 3.9464264,8.2182398 a 0.19285686,0.19285686 0 0 0 0,0.1735713 0.16714262,0.16714262 0 0 0 0.1671427,0.064285 L 5.3285673,8.2182396 v 0.083571 c 0,0.6814276 -0.5592849,1.2471411 -1.247141,1.2471411 A 1.2471411,1.2471411 0 0 1 2.8214281,8.2825255 c 0,-0.6814277 0.5592849,-1.2407126 1.2471411,-1.2407126 z M 4.8271395,7.2860984 C 5.0328535,7.4339553 5.187139,7.6396693 5.2707103,7.8839546 L 4.4157116,8.0575258 Z M 5.6114242,5.8525289 6.1257091,7.350384 A 0.5785706,0.5785706 0 0 0 5.8942808,7.7553834 L 5.6049955,7.8132405 A 1.600712,1.600712 0 0 0 4.9942821,6.9903846 Z M 6.4728515,7.568955 a 0.2410711,0.2410711 0 1 1 0,0.4821422 0.2410711,0.2410711 0 0 1 0,-0.4821422 z m 3.2978517,0.7971418 a 0.16714262,0.16714262 0 0 0 0.225,0.077142 0.16714262,0.16714262 0 0 0 0.077138,-0.2249997 L 9.5328471,7.1060985 a 1.2471411,1.2471411 0 0 1 1.6392829,1.189284 c 0,0.6814277 -0.565714,1.2407126 -1.2471414,1.2407126 A 1.2471411,1.2471411 0 0 1 9.2242764,7.2603841 Z M 4.0942834,9.876809 A 1.5878549,1.5878549 0 0 0 5.6757097,8.2889541 V 8.1539542 L 5.9714235,8.0896686 A 0.5785706,0.5785706 0 0 0 7.0578506,7.8196689 0.32142811,0.32142811 0 0 0 7.0321364,7.6718121 L 8.8642767,6.5468137 9.0571333,6.9582416 A 1.5814263,1.5814263 0 0 0 9.9057032,9.8832374 1.5878549,1.5878549 0 0 0 11.499987,8.2889541 1.5878549,1.5878549 0 0 0 9.3785617,6.8039562 L 8.7421339,5.5182437 9.8542756,4.4061025 A 0.17357119,0.17357119 0 0 0 9.8928463,4.2196741 0.16714262,0.16714262 0 0 0 9.7321325,4.1168172 H 8.6714198 a 0.17035692,0.17035692 0 1 0 0,0.3407137 H 9.3271333 L 8.4657058,5.3125298 H 7.5528499 a 0.17035692,0.17035692 0 1 0 0,0.3407138 h 0.880713 L 8.7164197,6.2318141 6.8521366,7.3825267 A 0.5785706,0.5785706 0 0 0 6.4664229,7.2346698 H 6.4407087 L 5.8942808,5.6532436 h 0.6299991 c 0.096428,0 0.1735712,-0.077142 0.1735712,-0.1735712 A 0.16714262,0.16714262 0 0 0 6.5242799,5.3125298 H 5.7785667 l -0.102857,-0.308571 h 0.2185711 a 0.17035692,0.17035692 0 1 0 0,-0.3407138 H 4.9749965 a 0.17035692,0.17035692 0 1 0 0,0.3407138 H 5.3092816 L 5.4507101,5.4153867 4.6857111,6.8296704 A 1.5878549,1.5878549 0 0 0 2.5,8.2825255 1.5878549,1.5878549 0 0 0 4.0878549,9.8703805"
     id="path2"
     style="fill:#ffffff;fill-opacity:1;stroke:none;stroke-width:0.642857;stroke-opacity:1"
     inkscape:connector-curvature="0" />
</svg>
