<?xml version="1.0" encoding="UTF-8" standalone="no"?>
<svg
   xmlns:dc="http://purl.org/dc/elements/1.1/"
   xmlns:cc="http://creativecommons.org/ns#"
   xmlns:rdf="http://www.w3.org/1999/02/22-rdf-syntax-ns#"
   xmlns:svg="http://www.w3.org/2000/svg"
   xmlns="http://www.w3.org/2000/svg"
   xmlns:sodipodi="http://sodipodi.sourceforge.net/DTD/sodipodi-0.dtd"
   xmlns:inkscape="http://www.inkscape.org/namespaces/inkscape"
   inkscape:version="1.0rc1 (09960d6f05, 2020-04-09)"
   sodipodi:docname="car.svg"
   id="svg4"
   version="1.1"
   viewBox="0 0 14 14">
  <metadata
     id="metadata10">
    <rdf:RDF>
      <cc:Work
         rdf:about="">
        <dc:format>image/svg+xml</dc:format>
        <dc:type
           rdf:resource="http://purl.org/dc/dcmitype/StillImage" />
      </cc:Work>
    </rdf:RDF>
  </metadata>
  <defs
     id="defs8" />
  <sodipodi:namedview
     inkscape:current-layer="svg4"
     inkscape:window-maximized="1"
     inkscape:window-y="0"
     inkscape:window-x="0"
     inkscape:cy="11.498173"
     inkscape:cx="-2.4480177"
     inkscape:zoom="20.214286"
     showgrid="false"
     id="namedview6"
     inkscape:window-height="1080"
     inkscape:window-width="1920"
     inkscape:pageshadow="2"
     inkscape:pageopacity="0"
     guidetolerance="10"
     gridtolerance="10"
     objecttolerance="10"
     borderopacity="1"
     bordercolor="#666666"
     pagecolor="#ffffff"
     inkscape:document-rotation="0" />
  <circle
     r="7"
     cy="7"
     cx="7"
     id="path835"
     style="fill:#fca94d;stroke-width:1.10736" />
  <path
     id="path1851"
     style="fill:#ffffff;fill-opacity:1;fill-rule:nonzero;stroke:none;stroke-width:0.00625874"
     d="m 5.7537455,6.7500618 c -0.088284,0 -0.1598,0.071516 -0.1598,0.1597227 0,0.088246 0.071516,0.1598387 0.1598,0.1598387 H 6.05735 c 0.088246,0 0.1596841,-0.071594 0.1596841,-0.1598387 0,-0.088206 -0.071438,-0.1597227 -0.1596841,-0.1597227 H 5.7537455 m 3.3807204,3.0174614 c -0.5662159,0 -1.0268772,-0.4608544 -1.0268772,-1.0270704 0,-0.5663317 0.4606613,-1.0268 1.0268772,-1.0268 0.5663704,0 1.0270321,0.4604683 1.0270321,1.0268 0,0.566216 -0.4606608,1.0270704 -1.0270321,1.0270704 z M 5.7325727,6.1060322 V 4.2325936 h 0.8722932 c 0.885391,0 1.6595478,1.3322978 1.9375364,1.8734386 z m -0.3195614,0 H 3.0695227 V 4.2325936 H 5.4130113 Z M 4.662075,7.7136526 c 0.5662545,0 1.0268773,0.4604685 1.0268773,1.0268 0,0.5662161 -0.4606228,1.0270705 -1.0268773,1.0270705 -0.5662931,0 -1.0269545,-0.4608545 -1.0269545,-1.0270705 0,-0.5663317 0.4606614,-1.0268 1.0269545,-1.0268 z m 6.383152,-1.11605 C 10.85332,6.2714345 10.528852,6.1060322 10.08067,6.1060322 H 8.8999431 C 8.6907273,5.6681664 7.7787159,3.9131096 6.6048659,3.9131096 H 2.9097227 C 2.8214773,3.9131096 2.75,3.9845095 2.75,4.072755 v 2.1931158 1.3085364 c 0,0.8894093 0,1.2315728 0.5729,1.3064115 0.070473,0.6767922 0.6441455,1.2060713 1.339175,1.2060713 0.6883455,0 1.2573045,-0.5191943 1.3366636,-1.1865986 h 0.6177569 c 0.088284,0 0.1598386,-0.071594 0.1598386,-0.1598388 0,-0.088245 -0.071555,-0.1597612 -0.1598386,-0.1597612 H 5.9987386 C 5.9193795,7.9133641 5.3504205,7.394014 4.662075,7.394014 3.9797181,7.394014 3.4147387,7.9043619 3.3276909,8.5631892 3.0754341,8.5315073 3.0695227,8.4072528 3.0695227,7.5744072 v -0.504784 h 2.1728704 c 0.088361,0 0.1598388,-0.071594 0.1598388,-0.1598387 0,-0.088206 -0.071478,-0.1597227 -0.1598388,-0.1597227 H 3.0695227 V 6.4255936 H 10.08067 c 0.324082,0 0.546782,0.1019618 0.682782,0.3244682 H 6.5525909 c -0.088284,0 -0.1597228,0.071516 -0.1597228,0.1597227 0,0.088246 0.071438,0.1598387 0.1597228,0.1598387 h 4.3318321 c 0.03091,0.1424522 0.04601,0.3099408 0.04601,0.504784 0,0.6136615 -0.02048,0.9159523 -0.464409,0.9658318 -0.09702,-0.647893 -0.6570887,-1.146225 -1.3315636,-1.146225 -0.6881909,0 -1.2572659,0.5193501 -1.3365864,1.1866775 H 7.1437659 c -0.088206,0 -0.1597228,0.071516 -0.1597228,0.1597612 0,0.088246 0.071516,0.1598388 0.1597228,0.1598388 H 7.7978795 C 7.8772,9.5676957 8.446275,10.08689 9.1344659,10.08689 c 0.7022542,0 1.2802931,-0.5402894 1.3410291,-1.2268962 C 11.249769,8.7860823 11.25,8.1445642 11.25,7.5744072 11.25,7.1455436 11.184859,6.8351004 11.045227,6.5976026 M 9.1344659,8.9401641 c -0.110075,0 -0.1997114,-0.089444 -0.1997114,-0.1997115 0,-0.110075 0.089636,-0.1996339 0.1997114,-0.1996339 0.1102296,0 0.1997886,0.089559 0.1997886,0.1996339 0,0.1102683 -0.089559,0.1997115 -0.1997886,0.1997115 z m 0,-0.7189841 c -0.2862182,0 -0.5191954,0.2330161 -0.5191954,0.5192728 0,0.2864114 0.2329772,0.5192729 0.5191954,0.5192729 0.2864115,0 0.5193493,-0.2328615 0.5193493,-0.5192729 0,-0.2862567 -0.2329378,-0.5192728 -0.5193493,-0.5192728 M 4.662075,8.5408187 c 0.1101136,0 0.19975,0.089559 0.19975,0.1996339 0,0.1102683 -0.089636,0.1997115 -0.19975,0.1997115 -0.1101523,0 -0.1997887,-0.089444 -0.1997887,-0.1997115 0,-0.110075 0.089636,-0.1996339 0.1997887,-0.1996339 z m 0,0.718907 c 0.2863341,0 0.5193113,-0.2328615 0.5193113,-0.519273 0,-0.2862568 -0.2329772,-0.5192726 -0.5193113,-0.5192726 -0.2864114,0 -0.51935,0.2330159 -0.51935,0.5192726 0,0.2864114 0.2329386,0.519273 0.51935,0.519273"
     inkscape:connector-curvature="0" />
</svg>
