<?xml version="1.0" encoding="UTF-8" standalone="no"?>
<svg
   xmlns:dc="http://purl.org/dc/elements/1.1/"
   xmlns:cc="http://creativecommons.org/ns#"
   xmlns:rdf="http://www.w3.org/1999/02/22-rdf-syntax-ns#"
   xmlns:svg="http://www.w3.org/2000/svg"
   xmlns="http://www.w3.org/2000/svg"
   xmlns:xlink="http://www.w3.org/1999/xlink"
   xmlns:sodipodi="http://sodipodi.sourceforge.net/DTD/sodipodi-0.dtd"
   xmlns:inkscape="http://www.inkscape.org/namespaces/inkscape"
   version="1.1"
   id="Ebene_1"
   x="0px"
   y="0px"
   width="92.5"
   height="52.5"
   viewBox="0 0 92.5 52.5"
   enable-background="new 0 0 960 560"
   xml:space="preserve"
   sodipodi:docname="car.svg"
   inkscape:version="0.92.2 (5c3e80d, 2017-08-06)"><metadata
     id="metadata4885"><rdf:RDF><cc:Work
         rdf:about=""><dc:format>image/svg+xml</dc:format><dc:type
           rdf:resource="http://purl.org/dc/dcmitype/StillImage" /><dc:title></dc:title></cc:Work></rdf:RDF></metadata><defs
     id="defs4883" /><sodipodi:namedview
     pagecolor="#ffffff"
     bordercolor="#666666"
     borderopacity="1"
     objecttolerance="10"
     gridtolerance="10"
     guidetolerance="10"
     inkscape:pageopacity="0"
     inkscape:pageshadow="2"
     inkscape:window-width="1280"
     inkscape:window-height="962"
     id="namedview4881"
     showgrid="false"
     inkscape:zoom="5.2833333"
     inkscape:cx="49.896185"
     inkscape:cy="30.893092"
     inkscape:window-x="-8"
     inkscape:window-y="-8"
     inkscape:window-maximized="1"
     inkscape:current-layer="Ebene_1" /><g
     id="g5479"
     transform="translate(-434.97632,-259.00015)"><g
       id="g4800"
       style="opacity:0.1;fill:#f0694b;fill-opacity:1"><g
         id="g4798"
         style="fill:#f0694b;fill-opacity:1"><defs
           id="defs4791"><rect
             height="39.750999"
             width="78.973999"
             y="261.12701"
             x="445.974"
             id="SVGID_1_" /></defs><clipPath
           id="SVGID_2_"><use
             id="use4793"
             overflow="visible"
             xlink:href="#SVGID_1_"
             style="overflow:visible"
             x="0"
             y="0"
             width="100%"
             height="100%" /></clipPath><path
           id="path4796"
           d="m 455.974,276 v -14.873 c -2.242,0.555 -4.176,2.051 -5.237,4.174 l -4.763,9.526 v 21.964 c 1.371,2.438 3.978,4.087 6.974,4.087 h 64 c 4.418,0 8,-3.581 8,-8 V 291 h -53.974 c -8.284,0 -15,-6.716 -15,-15"
           clip-path="url(#SVGID_2_)"
           inkscape:connector-curvature="0"
           style="fill:#f0694b;fill-opacity:1" /></g></g><line
       id="line4802"
       y2="285.46701"
       x2="460.5"
       y1="285.46701"
       x1="446.5"
       stroke-miterlimit="10"
       style="opacity:0.8;fill:none;stroke:#f0694b;stroke-width:3;stroke-linecap:round;stroke-linejoin:round;stroke-miterlimit:10;stroke-opacity:1" /><line
       id="line4804"
       y2="285.46701"
       x2="466.5"
       y1="285.46701"
       x1="465.5"
       stroke-miterlimit="10"
       style="opacity:0.8;fill:none;stroke:#f0694b;stroke-width:3;stroke-linecap:round;stroke-linejoin:round;stroke-miterlimit:10;stroke-opacity:1" /><path
       id="path4806"
       d="M 504.086,275 H 489.5 c -0.553,0 -1,-0.448 -1,-1 v -7 c 0,-0.552 0.447,-1 1,-1 h 7.586 c 0.266,0 0.52,0.105 0.707,0.293 l 7,7 c 0.63,0.63 0.184,1.707 -0.707,1.707"
       inkscape:connector-curvature="0"
       style="opacity:0.5;fill:#f0694b;fill-opacity:1" /><path
       id="path4808"
       d="m 461.2,275 h 19.3 c 0.553,0 1,-0.448 1,-1 v -7 c 0,-0.552 -0.447,-1 -1,-1 h -15.411 c -0.364,0 -0.698,0.197 -0.874,0.514 l -3.89,7 c -0.37,0.667 0.112,1.486 0.875,1.486"
       inkscape:connector-curvature="0"
       style="opacity:0.5;fill:#f0694b;fill-opacity:1" /><path
       id="path4810"
       d="m 507.631,274.535 -11.313,-11.313 c -1.502,-1.501 -3.537,-2.344 -5.658,-2.344 h -31.741 c -3.031,0 -5.801,1.712 -7.156,4.423 l -4.944,9.888 c -0.556,1.111 -0.845,2.336 -0.845,3.578 v 14.112 c 0,4.418 3.582,8 8,8 h 64 c 4.418,0 8,-3.582 8,-8 v -8 c 0,-4.419 -3.582,-8 -8,-8 h -4.687 c -2.121,-0.001 -4.156,-0.844 -5.656,-2.344 z"
       stroke-miterlimit="10"
       inkscape:connector-curvature="0"
       style="fill:none;stroke:#333333;stroke-width:3;stroke-linecap:round;stroke-linejoin:round;stroke-miterlimit:10;stroke-opacity:1" /><path
       id="path4812"
       d="m 474,301 c 0,4.971 -4.029,9 -9,9 -4.971,0 -9,-4.029 -9,-9 0,-4.971 4.029,-9 9,-9 4.971,0 9,4.029 9,9"
       inkscape:connector-curvature="0"
       style="fill:#fff9c4;fill-opacity:1" /><circle
       id="circle4814"
       r="9"
       cy="301"
       cx="465"
       stroke-miterlimit="10"
       style="fill:none;stroke:#333333;stroke-width:3;stroke-linecap:round;stroke-linejoin:round;stroke-miterlimit:10;stroke-opacity:1" /><path
       id="path4816"
       d="m 514,301 c 0,4.971 -4.029,9 -9,9 -4.971,0 -9,-4.029 -9,-9 0,-4.971 4.029,-9 9,-9 4.971,0 9,4.029 9,9"
       inkscape:connector-curvature="0"
       style="fill:#fff9c4;fill-opacity:1" /><circle
       id="circle4818"
       r="9"
       cy="301"
       cx="505"
       stroke-miterlimit="10"
       style="fill:none;stroke:#333333;stroke-width:3;stroke-linecap:round;stroke-linejoin:round;stroke-miterlimit:10;stroke-opacity:1" /><line
       id="line4820"
       y2="285.46701"
       x2="487.5"
       y1="285.46701"
       x1="483.5"
       stroke-miterlimit="10"
       style="fill:none;stroke:#333333;stroke-width:3;stroke-linecap:round;stroke-linejoin:round;stroke-miterlimit:10;stroke-opacity:1" /><path
       id="path4822"
       d="m 525.775,288.684 h -2.264 c -1.803,0 -3.264,-1.439 -3.264,-3.217 0,-1.778 1.461,-3.218 3.264,-3.218 h 1.633"
       stroke-miterlimit="10"
       inkscape:connector-curvature="0"
       style="fill:none;stroke:#333333;stroke-width:3;stroke-linecap:round;stroke-linejoin:round;stroke-miterlimit:10;stroke-opacity:1" /><line
       id="line4824"
       y2="310"
       x2="518.17401"
       y1="310"
       x1="482.75"
       stroke-miterlimit="10"
       style="fill:none;stroke:#333333;stroke-width:3;stroke-linecap:round;stroke-linejoin:round;stroke-miterlimit:10;stroke-opacity:1" /><line
       id="line4826"
       y2="310"
       x2="475.77301"
       y1="310"
       x1="446.396"
       stroke-miterlimit="10"
       style="fill:none;stroke:#333333;stroke-width:3;stroke-linecap:round;stroke-linejoin:round;stroke-miterlimit:10;stroke-opacity:1" /><line
       id="line4828"
       y2="310"
       x2="442.31601"
       y1="310"
       x1="441.5"
       stroke-miterlimit="10"
       style="fill:none;stroke:#333333;stroke-width:3;stroke-linecap:round;stroke-linejoin:round;stroke-miterlimit:10;stroke-opacity:1" /><path
       id="path4830"
       d="M 499.086,277 H 484.5 c -0.553,0 -1,-0.448 -1,-1 v -7 c 0,-0.552 0.447,-1 1,-1 h 7.586 c 0.266,0 0.52,0.105 0.707,0.293 l 7,7 c 0.63,0.63 0.184,1.707 -0.707,1.707 z"
       stroke-miterlimit="10"
       inkscape:connector-curvature="0"
       style="fill:none;stroke:#333333;stroke-width:3;stroke-linecap:round;stroke-linejoin:round;stroke-miterlimit:10;stroke-opacity:1" /><path
       id="path4832"
       d="m 456.2,277 h 19.3 c 0.553,0 1,-0.448 1,-1 v -7 c 0,-0.552 -0.447,-1 -1,-1 h -15.411 c -0.364,0 -0.698,0.197 -0.874,0.514 l -3.89,7 c -0.37,0.667 0.112,1.486 0.875,1.486 z"
       stroke-miterlimit="10"
       inkscape:connector-curvature="0"
       style="fill:none;stroke:#333333;stroke-width:3;stroke-linecap:round;stroke-linejoin:round;stroke-miterlimit:10;stroke-opacity:1" /><line
       id="line4834"
       y2="289.5"
       x2="445.5"
       y1="289.5"
       x1="440.5"
       stroke-miterlimit="10"
       style="fill:none;stroke:#333333;stroke-width:3;stroke-linecap:round;stroke-linejoin:round;stroke-miterlimit:10;stroke-opacity:1" /><line
       id="line4836"
       y2="292"
       x2="445.5"
       y1="292"
       x1="443.5"
       stroke-miterlimit="10"
       style="fill:none;stroke:#333333;stroke-width:3;stroke-linecap:round;stroke-linejoin:round;stroke-miterlimit:10;stroke-opacity:1" /><line
       id="line4838"
       y2="289.5"
       x2="436.5"
       y1="289.5"
       x1="436.5"
       stroke-miterlimit="10"
       style="fill:none;stroke:#333333;stroke-width:3;stroke-linecap:round;stroke-linejoin:round;stroke-miterlimit:10;stroke-opacity:0.94117647" /></g></svg>