<?xml version="1.0" encoding="UTF-8" standalone="no"?>
<svg
   xmlns:dc="http://purl.org/dc/elements/1.1/"
   xmlns:cc="http://creativecommons.org/ns#"
   xmlns:rdf="http://www.w3.org/1999/02/22-rdf-syntax-ns#"
   xmlns:svg="http://www.w3.org/2000/svg"
   xmlns="http://www.w3.org/2000/svg"
   xmlns:sodipodi="http://sodipodi.sourceforge.net/DTD/sodipodi-0.dtd"
   xmlns:inkscape="http://www.inkscape.org/namespaces/inkscape"
   viewBox="0 0 14 14"
   version="1.1"
   id="svg4"
   sodipodi:docname="tram.svg"
   inkscape:version="1.0rc1 (09960d6f05, 2020-04-09)">
  <metadata
     id="metadata10">
    <rdf:RDF>
      <cc:Work
         rdf:about="">
        <dc:format>image/svg+xml</dc:format>
        <dc:type
           rdf:resource="http://purl.org/dc/dcmitype/StillImage" />
      </cc:Work>
    </rdf:RDF>
  </metadata>
  <defs
     id="defs8" />
  <sodipodi:namedview
     inkscape:document-rotation="0"
     pagecolor="#ffffff"
     bordercolor="#666666"
     borderopacity="1"
     objecttolerance="10"
     gridtolerance="10"
     guidetolerance="10"
     inkscape:pageopacity="0"
     inkscape:pageshadow="2"
     inkscape:window-width="1920"
     inkscape:window-height="1080"
     id="namedview6"
     showgrid="false"
     inkscape:zoom="20.214286"
     inkscape:cx="-0.71731449"
     inkscape:cy="7"
     inkscape:window-x="0"
     inkscape:window-y="0"
     inkscape:window-maximized="1"
     inkscape:current-layer="svg4" />
  <circle
     style="fill:#fca94d;stroke-width:1.17616"
     id="path835"
     cx="7"
     cy="7"
     r="7" />
  <path
     d="m 8.325159,10.282326 a 0.15148199,0.15123996 0 1 0 0,0.30248 h 0.1028931 a 0.15148199,0.15123996 0 0 0 0,-0.30248 H 8.325159 M 5.5356113,9.4262547 a 0.15148172,0.15123968 0 0 0 0,0.3024791 h 0.1086094 a 0.14862344,0.14838598 0 1 0 0,-0.2967703 H 5.5356113 M 4.3637726,7.3888017 V 6.3729285 H 9.6456213 V 7.3945089 A 1.1832713,1.1813807 0 0 1 9.2969274,8.2391674 1.1832713,1.1813807 0 0 1 8.4566337,8.5815967 H 5.5527601 A 1.1832713,1.1813807 0 0 1 4.689601,8.2106317 1.1832713,1.1813807 0 0 1 4.3637726,7.3945089 Z m 0,-2.7223119 H 9.6456213 V 6.0761565 H 4.3637726 Z M 5.5527601,3.2967729 h 2.9038736 c 0.6173591,0 1.1203916,0.4736939 1.1832708,1.0672377 H 4.3752052 A 1.1889875,1.1870879 0 0 1 5.5470439,3.3024801 Z M 3.0776083,10.972893 a 0.14862344,0.14838598 0 0 0 0.2057864,-0.05708 L 3.472032,10.590511 h 4.2986472 a 0.15148159,0.15123956 0 0 0 0,-0.302478 H 3.6435206 L 3.9636326,9.7344381 H 5.072592 a 0.14862344,0.14838598 0 1 0 0,-0.2967708 H 4.129405 l 0.5030331,-0.873192 c 0.2515166,0.1997505 0.5716286,0.3196005 0.9146058,0.3196005 h 2.9153059 c 0.3429771,0 0.663089,-0.11985 0.914606,-0.3196005 L 9.8742726,9.4376699 H 6.1929843 a 0.14862344,0.14838598 0 1 0 0,0.2967714 h 3.8527767 l 0.320111,0.5535937 H 8.8910715 a 0.15148159,0.15123956 0 1 0 0,0.302478 h 1.6405745 l 0.188637,0.331015 a 0.14862344,0.14838598 0 1 0 0.257233,-0.148386 L 9.5941741,8.3476034 A 1.4862344,1.4838598 0 0 0 9.9371517,7.3945089 V 4.489568 A 1.4862344,1.4838598 0 0 0 8.4623498,3.000001 H 5.5527601 A 1.4862344,1.4838598 0 0 0 4.0665258,4.4838608 v 2.9106481 c 0,0.3595506 0.1257583,0.6905655 0.3429771,0.9473873 L 3.0204454,10.767436 a 0.14862344,0.14838598 0 0 0 0.057164,0.205457 m 4.84741,-7.2880337 H 6.0786585 a 0.14862344,0.14838598 0 0 0 0,0.2967719 H 7.925019 a 0.14862344,0.14838598 0 0 0 0,-0.2967719 M 5.7585464,7.1433942 a 0.30010502,0.29962554 0 1 1 0,0.5992509 0.30010502,0.29962554 0 0 1 0,-0.5992509 z m 0,0.8960229 a 0.60021008,0.5992511 0 0 0 0,-1.1985021 0.60021008,0.5992511 0 0 0 0,1.1985021 M 8.245131,7.1433942 a 0.30010502,0.29962554 0 1 1 0,0.5992509 0.30010502,0.29962554 0 0 1 0,-0.5992509 z m 0,0.8960229 a 0.60021008,0.5992511 0 0 0 0,-1.1985021 0.60021008,0.5992511 0 0 0 0,1.1985021"
     id="path2"
     inkscape:connector-curvature="0"
     style="fill:#ffffff;fill-opacity:1;stroke-width:0.571174" />
</svg>
