<?xml version="1.0" encoding="UTF-8" standalone="no"?>
<svg
   xmlns:dc="http://purl.org/dc/elements/1.1/"
   xmlns:cc="http://creativecommons.org/ns#"
   xmlns:rdf="http://www.w3.org/1999/02/22-rdf-syntax-ns#"
   xmlns:svg="http://www.w3.org/2000/svg"
   xmlns="http://www.w3.org/2000/svg"
   xmlns:xlink="http://www.w3.org/1999/xlink"
   xmlns:sodipodi="http://sodipodi.sourceforge.net/DTD/sodipodi-0.dtd"
   xmlns:inkscape="http://www.inkscape.org/namespaces/inkscape"
   version="1.1"
   id="Ebene_1"
   x="0px"
   y="0px"
   width="78"
   height="56"
   viewBox="0 0 78 56"
   enable-background="new 0 0 960 560"
   xml:space="preserve"
   sodipodi:docname="tram.svg"
   inkscape:version="0.92.2 (5c3e80d, 2017-08-06)"><metadata
     id="metadata5701"><rdf:RDF><cc:Work
         rdf:about=""><dc:format>image/svg+xml</dc:format><dc:type
           rdf:resource="http://purl.org/dc/dcmitype/StillImage" /><dc:title></dc:title></cc:Work></rdf:RDF></metadata><defs
     id="defs5699" /><sodipodi:namedview
     pagecolor="#ffffff"
     bordercolor="#666666"
     borderopacity="1"
     objecttolerance="10"
     gridtolerance="10"
     guidetolerance="10"
     inkscape:pageopacity="0"
     inkscape:pageshadow="2"
     inkscape:window-width="1280"
     inkscape:window-height="962"
     id="namedview5697"
     showgrid="false"
     inkscape:zoom="3.7358808"
     inkscape:cx="51.410542"
     inkscape:cy="57.825104"
     inkscape:window-x="-8"
     inkscape:window-y="-8"
     inkscape:window-maximized="1"
     inkscape:current-layer="Ebene_1" /><g
     id="g6302"
     transform="translate(-461.55543,-258.50015)"><g
       id="g5602"
       style="opacity:0.1;fill:#f0694b;fill-opacity:1"
       transform="matrix(0.67741935,0,0,1,171.77419,0)"><g
         id="g5600"
         style="fill:#f0694b;fill-opacity:1"><defs
           id="defs5593"><rect
             height="25.503"
             width="93"
             y="281.49701"
             x="439.5"
             id="SVGID_1_" /></defs><clipPath
           id="SVGID_2_"><use
             id="use5595"
             overflow="visible"
             xlink:href="#SVGID_1_"
             style="overflow:visible"
             x="0"
             y="0"
             width="100%"
             height="100%" /></clipPath><path
           id="path5598"
           d="m 524,281.497 v 0 C 524,290.611 516.611,298 507.498,298 h -37.998 -30 v 9 h 30 62.473 c 0.184,-0.137 0.364,-0.274 0.527,-0.436 V 295 c 0,-5.952 -3.477,-11.079 -8.5,-13.503"
           clip-path="url(#SVGID_2_)"
           inkscape:connector-curvature="0"
           style="fill:#f0694b;fill-opacity:1" /></g></g><line
       id="line5604"
       y2="289.5"
       x2="530.5"
       y1="289.5"
       x1="503.5"
       stroke-miterlimit="10"
       style="opacity:0.8;fill:none;stroke:#f0694b;stroke-width:3;stroke-linecap:round;stroke-linejoin:round;stroke-miterlimit:10;stroke-opacity:1" /><line
       id="line5606"
       y2="289.5"
       x2="496.5"
       y1="289.5"
       x1="492.5"
       stroke-miterlimit="10"
       style="opacity:0.8;fill:none;stroke:#f0694b;stroke-width:3;stroke-linecap:round;stroke-linejoin:round;stroke-miterlimit:10;stroke-opacity:1" /><path
       id="path5608"
       d="m 507.5,264.5 h -35 c 0,-3.313 2.687,-6 6,-6 h 29 c 1.657,0 3,1.343 3,3 0,1.657 -1.343,3 -3,3"
       inkscape:connector-curvature="0"
       style="opacity:0.5;fill:#f0694b;fill-opacity:1" /><line
       id="line5610"
       y2="313"
       x2="527.17401"
       y1="313"
       x1="473.75"
       stroke-miterlimit="10"
       style="fill:none;stroke:#333333;stroke-width:3;stroke-linecap:round;stroke-linejoin:round;stroke-miterlimit:10;stroke-opacity:1" /><line
       id="line5614"
       y2="313"
       x2="469.42673"
       y1="313"
       x1="468.61072"
       stroke-miterlimit="10"
       style="fill:none;stroke:#333333;stroke-width:3;stroke-linecap:round;stroke-linejoin:round;stroke-miterlimit:10;stroke-opacity:1" /><path
       id="path5616"
       d="m 500.5,280 v -12.5 h -31 V 307 h 63 v -12 c 0,-8.284 -6.716,-15 -15,-15 z"
       stroke-miterlimit="10"
       inkscape:connector-curvature="0"
       style="fill:none;stroke:#333333;stroke-width:3;stroke-linecap:round;stroke-linejoin:round;stroke-miterlimit:10;stroke-opacity:1" /><polygon
       id="polygon5618"
       points="515.5,278.5 515.5,273.5 "
       stroke-miterlimit="10"
       style="fill:none;stroke:#333333;stroke-width:3;stroke-linecap:round;stroke-linejoin:round;stroke-miterlimit:10;stroke-opacity:1" /><path
       id="path5620"
       d="M 515.5,260.5 Z"
       stroke-miterlimit="10"
       inkscape:connector-curvature="0"
       style="fill:none;stroke:#4b4668;stroke-width:3;stroke-linecap:round;stroke-linejoin:round;stroke-miterlimit:10" /><path
       id="path5622"
       d="m 537.875,301 c -2.762,0 -5,-2.238 -5,-5 0,-2.762 2.238,-5 5,-5 z"
       stroke-miterlimit="10"
       inkscape:connector-curvature="0"
       style="fill:none;stroke:#333333;stroke-width:3;stroke-linecap:round;stroke-linejoin:round;stroke-miterlimit:10;stroke-opacity:1" /><line
       id="line5624"
       y2="280"
       x2="501.5"
       y1="280"
       x1="477.5"
       stroke-miterlimit="10"
       style="fill:none;stroke:#333333;stroke-width:3;stroke-linecap:round;stroke-linejoin:round;stroke-miterlimit:10;stroke-opacity:1" /><path
       id="path5626"
       d="m 504.5,267.5 h -35 c 0,-3.313 2.687,-6 6,-6 h 29 c 1.657,0 3,1.343 3,3 0,1.657 -1.343,3 -3,3 z"
       stroke-miterlimit="10"
       inkscape:connector-curvature="0"
       style="fill:none;stroke:#333333;stroke-width:3;stroke-linecap:round;stroke-linejoin:round;stroke-miterlimit:10;stroke-opacity:1" /><polygon
       id="polygon5628"
       points="515.5,269.5 515.5,266.5 "
       stroke-miterlimit="10"
       style="fill:none;stroke:#333333;stroke-width:3;stroke-linecap:round;stroke-linejoin:round;stroke-miterlimit:10;stroke-opacity:1" /><path
       id="path5644"
       d="m 490.5,307 c 0,3.313 -2.688,6 -6,6 -3.312,0 -6,-2.687 -6,-6 0,-3.313 2.688,-6 6,-6 3.312,0 6,2.687 6,6"
       inkscape:connector-curvature="0"
       style="fill:#ffffff" /><path
       id="path5646"
       d="m 491.5,304 c 0,3.313 -2.688,6 -6,6 -3.312,0 -6,-2.687 -6,-6 0,-3.313 2.688,-6 6,-6 3.312,0 6,2.687 6,6"
       inkscape:connector-curvature="0"
       style="opacity:0.5;fill:#f0694b;fill-opacity:1" /><circle
       id="circle5648"
       cy="307"
       cx="484.5"
       stroke-miterlimit="10"
       style="fill:none;stroke:#333333;stroke-width:3;stroke-linecap:round;stroke-linejoin:round;stroke-miterlimit:10;stroke-opacity:1"
       r="6" /><path
       id="path5650"
       d="m 520.5,307 c 0,3.313 -2.688,6 -6,6 -3.312,0 -6,-2.687 -6,-6 0,-3.313 2.688,-6 6,-6 3.312,0 6,2.687 6,6"
       inkscape:connector-curvature="0"
       style="fill:#ffffff" /><path
       id="path5652"
       d="m 521.5,304 c 0,3.313 -2.688,6 -6,6 -3.312,0 -6,-2.687 -6,-6 0,-3.313 2.688,-6 6,-6 3.312,0 6,2.687 6,6"
       inkscape:connector-curvature="0"
       style="opacity:0.5;fill:#f0694b;fill-opacity:1" /><circle
       id="circle5654"
       cy="307"
       cx="514.5"
       stroke-miterlimit="10"
       style="fill:none;stroke:#333333;stroke-width:3;stroke-linecap:round;stroke-linejoin:round;stroke-miterlimit:10;stroke-opacity:1"
       r="6" /><line
       style="fill:none;stroke:#333333;stroke-width:3;stroke-linecap:round;stroke-linejoin:round;stroke-miterlimit:10;stroke-opacity:1"
       stroke-miterlimit="10"
       x1="463.25723"
       y1="313"
       x2="464.07324"
       y2="313"
       id="line6316" /></g></svg>