<svg xmlns="http://www.w3.org/2000/svg" viewBox="0 0 300 323.48778">
    <defs>
        <clipPath id="a" clipPathUnits="userSpaceOnUse">
            <path d="M0 841.9h595.3V0H0z" />
        </clipPath>
        <svg xmlns="http://www.w3.org/2000/svg" viewBox="0 0 300 323.48778">
            <defs>
                <clipPath id="a" clipPathUnits="userSpaceOnUse">
                    <path d="M0 841.9h595.3V0H0z" />
                </clipPath>
                <clipPath id="b" clipPathUnits="userSpaceOnUse">
                    <path d="M0 841.9h595.3V0H0z" />
                </clipPath>
            </defs>
            <g clip-path="url(#a)" transform="matrix(1.32292 0 0 -1.32292 -243.8 837)">
                <path fill="#ed1c24" d="M187.8 498.9c0 44.5 26.5 82.8 64.5 100l-5.5 4.2a113.4 113.4 0 01-19.9-190c.7-.6 1.7.4.8 1a109.6 109.6 0 00-39.9 84.8M297.6 615.1c-11.7 0-23.1-1.8-33.8-5.1l3-5.7a109.8 109.8 0 00100.8-190.2c-.9-.6 0-1.6.8-1a113.4 113.4 0 01-70.7 202" />
                <path fill="#ed1c24" d="M225.8 465l-.4.2-.8.2a11.4 11.4 0 01-3.5-.2 1 1 0 01-.4-.2l-.2-.4v-24.1c0-.6.2-1 .5-1.3.3-.3.7-.4 1.1-.4h12.2l.4.1.2.4.2.7a8.8 8.8 0 01-.2 2.8l-.2.3-.4.1H226v21.4l-.2.4M241.4 450.6c0 .7.1 1.3.3 1.9l.7 1.4a3.5 3.5 0 003 1.4c1.2 0 2.2-.4 2.8-1.2.6-.9 1-2 .9-3.5zm8 7.7c-1 .4-2.4.6-4 .6-1.4 0-2.7-.2-3.8-.7a8 8 0 01-3-2c-.8-1-1.4-2-1.8-3.4-.5-1.3-.7-2.7-.7-4.4 0-1.7.2-3.2.6-4.4a7.6 7.6 0 014.9-5c1.3-.5 2.7-.7 4.3-.7a17.4 17.4 0 017 1.5l.1.3.2.4v.5a11.9 11.9 0 01-.1 2.1c0 .2-.1.2-.2.3h-.3l-.8-.1a19.2 19.2 0 00-3-.9l-2.4-.2c-.9 0-1.7.1-2.3.4a3.8 3.8 0 00-2.4 2.6c-.2.6-.3 1.3-.3 2.1h11.1c.5 0 .9.2 1.2.5.3.3.4.7.4 1.4v.8c0 1.3-.2 2.5-.5 3.6a7 7 0 01-4.2 4.7M256.8 439.8l.7-.5 1.2-.4a11.8 11.8 0 013.6-.6c1.2 0 2.2.1 3.2.4 1 .3 1.8.7 2.5 1.2s1.3 1.2 1.7 2c.4.8.6 1.7.6 2.8a5.1 5.1 0 01-1.4 3.7 15 15 0 01-4.7 2.5l-1.5.6c-.5.2-.8.5-1 .8-.3.3-.4.6-.4 1l.1.8c.1.3.3.5.5.6.2.2.5.4.9.5l1.2.1c.6 0 1.2 0 1.7-.2a11.4 11.4 0 002.3-1l.6-.2.3.1.2.3.1.5a10.9 10.9 0 010 2.3l-.2.3-.3.3c-.1.2-.3.3-.6.4a12.2 12.2 0 01-7.4.4 7 7 0 01-2.3-1.2 5.2 5.2 0 01-2-4.3c0-.8.1-1.6.4-2.2a5 5 0 011-1.6c.4-.4.9-.8 1.4-1a15 15 0 013.2-1.5l1.4-.6c.5-.2.8-.5 1-.8.3-.3.4-.6.4-1s0-.7-.2-1c-.1-.3-.3-.5-.6-.7-.2-.2-.6-.3-1-.4l-1.2-.1c-.7 0-1.4 0-2 .2a11.7 11.7 0 00-2.6 1.2l-.6.2h-.3l-.2-.3-.2-.6a8.9 8.9 0 01.1-2.3c.1-.3.2-.6.4-.7M277.6 452.5l.8 1.4a3.5 3.5 0 002.9 1.4c1.3 0 2.3-.4 2.9-1.2.6-.9.9-2 .9-3.5h-7.8c0 .7.2 1.3.3 1.9m10.5-13.1l.7.4.2.3.1.3v.6a12.8 12.8 0 010 2.1l-.2.3h-.4l-.8-.1a19.3 19.3 0 00-3-.9l-2.3-.2c-1 0-1.7.1-2.3.4-.7.2-1.2.5-1.6 1a4 4 0 00-.9 1.6c-.2.6-.3 1.3-.3 2.1h11.2c.5 0 .9.2 1.1.5.3.3.5.7.5 1.4v.8c0 1.3-.2 2.5-.5 3.6-.4 1-.9 2-1.6 2.8a7 7 0 01-2.6 1.9c-1.1.4-2.4.6-4 .6-1.4 0-2.7-.2-3.9-.7a8 8 0 01-3-2c-.7-1-1.3-2-1.8-3.4-.4-1.3-.6-2.7-.6-4.4 0-1.7.2-3.2.6-4.4.4-1.3 1-2.4 1.8-3.2.9-.8 1.9-1.5 3.1-1.9a17.6 17.6 0 0110.4.5M305.8 455c-.2-.6-.5-1.1-.8-1.5-.4-.4-.9-.8-1.4-1-.6-.2-1.3-.3-2.2-.3H299v9h2.3c.5 0 1 0 1.6-.2a3.4 3.4 0 002.7-1.9c.3-.5.5-1.3.5-2.2a6 6 0 00-.3-2m5.5 5.3a6.7 6.7 0 01-3.4 3.9 9 9 0 01-2.4.8 18.7 18.7 0 01-3.8.4h-6.3c-.5 0-1-.1-1.3-.5-.4-.3-.5-.8-.5-1.4v-23.9l.1-.3c0-.2.2-.2.4-.3l.9-.2a11.5 11.5 0 013.4.2c.2 0 .3.1.4.3l.2.3v8.5h2.2c1.7 0 3.3.2 4.5.6a9 9 0 013.3 1.8c1 .8 1.6 1.8 2 3a10.5 10.5 0 01.3 6.8M318 450.6c0 .7 0 1.3.3 1.9.1.5.4 1 .7 1.4a3.5 3.5 0 003 1.4c1.2 0 2.2-.4 2.8-1.2.6-.9 1-2 .9-3.5zm12.2-2.8c.3.3.5.7.5 1.4v.8c0 1.3-.2 2.5-.5 3.6-.4 1-.9 2-1.6 2.8a7 7 0 01-2.6 1.9c-1.1.4-2.4.6-4 .6-1.4 0-2.7-.2-3.9-.7a8 8 0 01-3-2c-.7-1-1.3-2-1.8-3.4-.4-1.3-.6-2.7-.6-4.4 0-1.7.2-3.2.6-4.4.4-1.3 1-2.4 1.8-3.2.9-.8 1.9-1.5 3.1-1.9a17.4 17.4 0 0111.2.8l.2.4.1.4v.5a11.9 11.9 0 010 2.1c0 .2-.2.2-.2.3h-.3l-.8-.1a19 19 0 00-3-.9l-2.4-.2c-1 0-1.7.1-2.3.4a3.8 3.8 0 00-2.5 2.6c-.2.6-.2 1.3-.2 2.1h11c.6 0 1 .2 1.2.5M344.4 439.2l.3.7v1.4a7 7 0 010 1.5l-.3.3h-.2-.3a10 10 0 00-1-.3h-.8c-.8 0-1.3.2-1.6.7-.4.5-.5 1.2-.5 2.2v8.6h4c.2 0 .4.2.6.5l.2 1.6v1l-.2.6c0 .2-.2.3-.3.4H340v4.2l-.1.3-.4.3a3 3 0 01-.8.2 12.9 12.9 0 01-3.3-.2.8.8 0 01-.4-.3l-.2-.3v-4.1h-2.1l-.4-.1a.8.8 0 01-.2-.4l-.2-.6a8.4 8.4 0 01.2-2.6c0-.3.3-.5.5-.5h2.2v-9.4c0-1.1.2-2 .4-2.9a4.4 4.4 0 013-3.2 8.2 8.2 0 013.7-.4 8.8 8.8 0 012 .5c.2 0 .4.2.5.3M351.5 450.6c0 .7.1 1.3.3 1.9l.7 1.4a3.5 3.5 0 003 1.4c1.3 0 2.2-.4 2.8-1.2.7-.9 1-2 1-3.5zm10.7 5.8a7 7 0 01-2.7 1.9c-1 .4-2.4.6-4 .6-1.4 0-2.7-.2-3.8-.7a8 8 0 01-3-2c-.8-1-1.4-2-1.8-3.4a14.8 14.8 0 010-8.9c.4-1.2 1-2.3 1.8-3.1.8-.8 1.8-1.5 3-1.9a17.4 17.4 0 0111.2.8l.2.4.2.4v.5a11.9 11.9 0 01-.1 2.1c0 .2-.1.2-.2.3h-.3l-.8-.1a19 19 0 00-3-.9l-2.4-.2c-.9 0-1.7.1-2.3.4a3.8 3.8 0 00-2.4 2.6c-.2.6-.3 1.3-.3 2.1h11.1c.5 0 1 .2 1.2.5.3.3.4.7.4 1.4v.8c0 1.3-.2 2.5-.5 3.6-.3 1-.8 2-1.5 2.8M371.7 458.1l-.4.3-.6.1a9.5 9.5 0 01-2.9-.1.7.7 0 01-.3-.3l-.1-.3v-18.3-.4l.5-.2.8-.2a12.5 12.5 0 013.3.2l.4.2.1.4v11.4a16.3 16.3 0 002 2.5l1 .5.8.2h.7a6.7 6.7 0 001-.4h.7l.2.4.2.8a14.2 14.2 0 01-.2 3.3l-.1.3-.4.2a4.3 4.3 0 01-1.2.2h-.6l-1.1-.1-1.2-.5-1.2-1.1c-.4-.5-.9-1-1.3-1.7v2.3l-.1.3M239 407.6c-.6-.2-1.1-.2-1.6-.2-.4 0-.8.1-1.2.4-.5.3-.7.6-.8 1-.1.4 0 .8.2 1.2l.5.6.8.1.9-.1c.3-.1.7-.3 1-.6l1.3-.8zm3.7 6.2c-.3.4-.7.7-1.3 1.1a5.7 5.7 0 01-1.9.8l-.8.2h-.6l-.3-.2a1.9 1.9 0 01-.4-.6v-.2-.1-.1l.5-.1a8.4 8.4 0 001.6-.3 4 4 0 001.8-1.1l.3-.7v-.8l-.5-.8-.4-.6-1 .6a9 9 0 01-1.8 1l-1.5.3c-.5 0-.9-.1-1.3-.4-.4-.2-.7-.5-1-1a3 3 0 01-.4-1v-1.1c.1-.4.3-.7.6-1 .2-.4.6-.6 1-1l1.5-.5 1.7.1-.5-.7c0-.1-.1-.2 0-.2v-.2l.4-.3.4-.2h.4l3.4 5.3.6 1.4c.1.4.2.8 0 1.2 0 .4-.2.8-.5 1.2M254.4 407.3l-.1.2-.2.1a4.4 4.4 0 01-1 .5h-.2v-.2l-3-5.7-1.8-.6c-.5 0-1 0-1.3.2l-.7.5c-.2.3-.3.5-.3.8v.9l.5 1.2 2.5 4.8v.1l-.1.2-.2.2a5 5 0 01-.7.3l-.3.1h-.2v-.1l-2.6-5-.6-1.6v-1.4c0-.4.2-.8.5-1.2a3.5 3.5 0 012.8-1.3c.6 0 1.2.1 2 .4l-.6-1v-.2-.1l.2-.2a2.8 2.8 0 011-.4l.2.1 4.1 8.3v.1M262.4 403a1.9 1.9 0 01.1.6v.1l-.3.3c0 .2-.2.3-.4.4a5.1 5.1 0 01-1.2.7l-1.5.3-1.2-.1-.9-.6-.5-1c-.2-.3-.2-.7-.2-1 0-.3 0-.6.2-.9l.5-.7a8.8 8.8 0 011.3-1.3l.6-.6.3-.7v-.7l-.4-.5-.6-.3h-.6a3.4 3.4 0 00-1.7.7 5 5 0 00-1 1l-.2.2h-.2-.1l-.1-.2-.2-.3a2 2 0 010-.5v-.3l.2-.4.5-.4a5.6 5.6 0 013-1.2h1.2c.4.2.8.4 1 .7a3 3 0 011 2c0 .4-.2.7-.3 1l-.5.7a10.8 10.8 0 01-1.3 1.3l-.6.6a2 2 0 00-.3.7v.7c0 .2.2.3.3.4.1.2.3.3.5.3h.6l.7-.1.8-.4a5 5 0 00.8-.9l.2-.2h.1l.2.1v.2l.2.3M270.3 398.5c0-.3-.2-.5-.3-.7l-.6-.5c-.2-.2-.4-.3-.7-.3h-.9a2 2 0 00-1.2 1 2 2 0 00-.1 1.5c0 .3.2.5.3.7l.5.6.7.2h1c.5-.2 1-.5 1.2-1 .2-.4.2-.9 0-1.5m-4.8-4.8l2.3-.8c.6-.1 1-.4 1.2-.7.3-.2.3-.6.2-1l-.3-.6-.6-.4-.9-.1c-.4 0-.8 0-1.3.2-.8.2-1.3.5-1.7.8-.4.3-.5.7-.4 1.2l.2.4.3.3.4.3.6.4m8 7.2l-2.8.7a5.3 5.3 0 01-1.3.6l-1.5.2c-.4 0-.9-.2-1.2-.4a3 3 0 01-1-.8c-.3-.3-.5-.8-.7-1.3l-.1-1.1.2-1-.8-.7c-.3-.2-.4-.6-.6-1v-.8l.6-.9c-.3 0-.5-.2-.7-.3a3 3 0 01-.6-.4 2.4 2.4 0 01-.6-1.1v-1c0-.4.2-.7.4-1l1.1-.9a8.2 8.2 0 013.8-1 4 4 0 011.5.3 2.8 2.8 0 011.7 1.9v1c0 .4-.2.7-.4 1l-.8.7a5 5 0 01-1.2.5l-2.3.8c-.3 0-.6.3-.8.5-.1.2-.2.4-.1.6l.2.5.4.3.7-.5 1-.5c.5-.1 1-.2 1.5-.1.4 0 .8 0 1.2.3.4.2.7.4 1 .8a3.7 3.7 0 01.8 2.2l-.3 1 1.3-.4h.2l.3.5v.5c0 .2 0 .2-.2.3M281.6 395.3l-5 .8c0 .4.2.8.4 1l.6.9a2.4 2.4 0 002 .5c.8-.1 1.4-.5 1.7-1a3 3 0 00.3-2.2m1.2 2.7l-1 1.1c-.5.4-1.1.6-1.8.7h-2c-.5-.2-1-.4-1.5-.8-.4-.4-.8-.8-1.1-1.4a7.3 7.3 0 01-.8-4.3 3.7 3.7 0 011.9-2.9c.5-.3 1.1-.5 1.9-.6a7.6 7.6 0 013.4.1l.1.2a2 2 0 01.2.5v.6h-.2-.4a9 9 0 00-1.5-.2l-1.2.1c-.6 0-1 .3-1.4.5l-.8.8c-.2.3-.3.7-.3 1.1v1.4l6-1h.6l.3.6v.3a6 6 0 010 1.7c0 .6-.2 1-.4 1.5M292.4 398l-.2.2h-.2l-5.2.4h-.2l-.1-.1-.1-.2v-.4-.5l.2-.2 4-.3-4.6-6a7 7 0 01-.3-.5 1.4 1.4 0 01-.1-.5v-.3-.5l.4-.2 5.7-.4h.1l.1.1.1.2v.3c.1.2 0 .3 0 .4V389.8h-.2l-4.3.4 4.5 6a5 5 0 01.3.5 1.6 1.6 0 01.1.5V398.1M296.7 394l.1 1.2.5.9a2.4 2.4 0 002 .9c.7 0 1.3-.2 1.8-.7a3 3 0 00.6-2.1zm6.4 1.7c-.1.5-.4 1-.7 1.4-.3.4-.8.7-1.3.9-.5.2-1.1.3-1.8.3s-1.3-.1-1.9-.4c-.5-.2-1-.6-1.3-1-.4-.5-.7-1-.9-1.6a7 7 0 01-.3-2.2c0-.8.2-1.6.4-2.2a3.7 3.7 0 012.4-2.5c.5-.2 1.2-.2 2-.2a7.5 7.5 0 013.2.8l.1.1v1.1l-.2.1-.4-.1a8.3 8.3 0 00-1.5-.5l-1.1-.2c-.6 0-1 .1-1.5.3-.3.1-.7.3-.9.6l-.5 1-.2 1.4 6 .2.5.1c.2.1.2.3.2.6v.3a6 6 0 01-.3 1.7M308 398.5l-.3.1a3.4 3.4 0 01-1.1-.2h-.1v-.2l.8-9.2v-.1l.2-.1h.2a3.5 3.5 0 011.1.1l.1.1v.2l-.8 9.1v.2M307.9 400.6c.1.2.2.5.1.9 0 .4-.1.6-.3.7-.1.2-.4.2-.8.2s-.7-.2-.8-.3l-.2-.8c0-.4.2-.7.3-.8.2-.1.5-.2.9-.1.4 0 .6 0 .8.2M319.6 392.5l-.1.2-.1.1h-.1c-.1 0-.2 0-.3-.2l-.5-.5-.7-.5-1-.4h-1.1a2 2 0 00-.9.6l-.7 1-.4 1.6c-.2 1.1-.1 2 .2 2.8.3.6.9 1 1.7 1.2h1a3.9 3.9 0 001.4-.5l.4-.2.2.2v.6a4 4 0 01-.2.5v.2l-.3.1-.4.3-.7.2a4.8 4.8 0 01-3.2-.6c-.5-.3-1-.6-1.2-1.1-.3-.5-.6-1-.7-1.7V394c.2-.8.4-1.5.7-2 .3-.6.6-1.1 1-1.5l1.4-.7h1.8a4.5 4.5 0 011.7.6 4.1 4.1 0 011 .8l.2.2v.4a3.4 3.4 0 01-.1.7M329.2 400.6c-.2.5-.5.8-.8 1l-1.2.6a3.5 3.5 0 01-3-.8l-1-1.5-1.5 5.3v.1h-.5a3.4 3.4 0 01-1-.3l-.1-.1v-.1l3.6-13.3.2-.1h.3a3.3 3.3 0 011 .3l.1.1v.2l-1.7 6.2c.3.7.6 1.2 1 1.6.3.4.6.7 1 .8h1c.2 0 .5-.1.7-.3l.5-.7.5-1.2 1.4-5.2v-.1l.2-.1h.3a3.6 3.6 0 011 .4h.1v.2l-1.4 5.5c-.2.6-.4 1.1-.7 1.5M341 403.3l-.7 1.5-1 1c-.4.1-.8.3-1.3.3-.4 0-1 0-1.5-.3-.5-.2-1-.5-1.3-1-.4-.4-.7-1-1-1.7l-.5 1.1v.2h-.2-.2a3.4 3.4 0 01-1-.4v-.2-.1l3.4-8.6.1-.1h.4a3.4 3.4 0 011 .4l.1.2v.1l-2.4 6c.2.7.5 1.3.8 1.7.3.5.6.8 1 1h.9c.2 0 .5 0 .7-.2.3-.1.5-.4.7-.6l.6-1.2 2-5v-.1h.5a3.7 3.7 0 011 .5v.2zM345.8 405.4l-.4 1v1.1a2.4 2.4 0 001.3 1.7c.8.3 1.4.4 2 .2a3 3 0 001.5-1.6zm7.8-1.2v.2l-.2.2-.2.2h-.1-.1l-.3-.2a8.5 8.5 0 00-1.1-1.2l-1-.6c-.5-.3-1-.4-1.4-.5-.4 0-.8 0-1.1.2-.4.1-.7.4-1 .7l-.7 1.1 5.3 2.9c.2 0 .3.2.4.3l-.1.6-.2.3a6 6 0 01-1 1.4 3.5 3.5 0 01-2.8 1.1 4.6 4.6 0 01-3.3-1.7c-.3-.5-.6-1-.7-1.6-.2-.5-.2-1.1 0-1.8 0-.7.3-1.3.7-2 .4-.8.8-1.4 1.3-1.8a3.7 3.7 0 013.2-1.1c.6 0 1.2.2 1.9.6a7.4 7.4 0 012.6 2.2v.5M361.4 409a1.7 1.7 0 01-.4.4h-.2l-.1-.1a3 3 0 00-.7-.8c-.4-.2-.8-.3-1.1-.1a3 3 0 00-1 1l-2.8 4.4 2 1.3v.2c0 .1 0 .3-.2.5l-.2.3-.1.1h-.2-.1l-2-1.3-1.2 1.9h-.1-.2-.2a3.7 3.7 0 01-.7-.5l-.2-.2v-.1-.2l1.2-1.8-1.1-.7-.1-.1v-.2-.2l.2-.3.4-.4h.3l1 .7 3-4.5.9-1 .9-.6a2 2 0 011 0 3.5 3.5 0 011.5.8 5.6 5.6 0 01.6.6l.1.2v.3l-.2.4" />
            </g>
            <g clip-path="url(#b)" transform="matrix(1.32292 0 0 -1.32292 -243.8 837)">
                <path fill="#73c82c" d="M280.6 539.7s12.4 3 20.3 3c8 .3 14.3 0 14.3 0s4 12.5 10.3 23.5c6.3 11 24.6 29.2 36.8 37 12.3 7.9 11.8 7.4 11.8 7.4s-7.2 6.8-20.3 10.7l4.4 3.7s-9.1 5.5-30.3 6.4a224 224 0 01-17.6-26.4c-12.6-24.3-13.9-54.7-13.9-54.7s-4.7 23.9-13.7 43-21.2 32.7-21.2 32.7-10.4-2.6-21.5-10c9-6 20-15.5 25-22.5-11.2 7.7-23 14.4-32.4 17.2a79.7 79.7 0 01-20.4-17.9c17.4-6 30.7-11.6 41.2-19.3 10.4-7.8 22-23.2 27.2-33.8" />
                <path fill="#231f20" d="M231.6 583.8a122 122 0 0018.3-10.5 91 91 0 008-6.6l2-1.8 1.8-1.8a79.6 79.6 0 007.1-7.8l3.3-4.1 2.2-2.8 1.1-1.5a387.6 387.6 0 013.7-4.4h.2c.2.1.3.4.2.6a93 93 0 01-14.6 23 66.2 66.2 0 01-22 16.2 132.6 132.6 0 01-15 6.5l-4.6 1.6-.5.2-8.6 2.8.7 1 .7.7 1.3 1.4.7.8 1.4 1.4a75 75 0 012 2.1l1.2 1 .4.4.7.6.8.8 1.4 1.2 2.4 1.8 2.4 1.7c.2.2.3.5.2.7-.2.2-.5.3-.7.1l-2.6-1.5-2.5-1.8-1.6-1.2-.8-.6-.8-.6a31 31 0 00-.4-.4l-1.1-1-1.5-1.2-.8-.8-1.4-1.3-.8-.8-1.4-1.4-.7-.8-1.4-1.5-1.6-1.6a.3.3 0 01.1-.5l1.3-.4 10-3.7.5-.2 4.5-1.8 4.8-2.2M237.7 615.5l1.4-.8a63 63 0 003.6-2l.7-.5 1-.7.6-.4 1.2-.8a95.1 95.1 0 0012.9-11 130.2 130.2 0 006.1-6.3l.3.1c.1.1.2.4 0 .5a129.3 129.3 0 01-18 18.3 34.8 34.8 0 01-1.8 1.3l-1.1.9a44.8 44.8 0 00-2.6 1.7l.6.3 1.2.7 1 .6 2.1 1.3.9.5 1.4.8.7.4 1.5.8.8.4 1.5.8 1.1.5 1.2.6.5.2 1.9 1 .2.4c0 .2-.3.3-.5.3l-2-.5-.5-.2a26.6 26.6 0 01-2.5-.7l-1.7-.6-.8-.3-1.6-.7-.8-.4-1.6-.7a38.1 38.1 0 00-2.5-1.4l-1-.5-1.9-1.2-3.5-2.2a.3.3 0 010-.5M261.2 625.8a110 110 0 015.7-8.7l1.5-2.4a262.8 262.8 0 014.5-7.3l2.4-4.1.7-1.2a29.6 29.6 0 002.6-4.5l.4-.9 1-1.7 2.6-5.2 3.2-7.1 2.3-6 .4-1.1.4-1.2.8-2.2 3-9.4 1-3.5c0-.6.2-1.2.4-1.7l2-7.5v-.2l.2-.1h.4l.1.2v.1a303.6 303.6 0 011.6 11l.7 4 .3 1.4.8 4.3.3 1.1.2 1 .4 1.7.7 2.7.3 1c0 .6.2 1.1.3 1.6l.8 2.6a55.5 55.5 0 01.8 2.6l1 2.6c.3 1.4.8 2.7 1.3 4a203.2 203.2 0 012.6 6.2l1.5 3.2.8 1.7 1.7 3.3.8 1.6 2.8 4.7 2.9 4.7 3 4.6 3.2 4.5 3 4h3.2a68.8 68.8 0 0024.4-5l.5-.3a126.9 126.9 0 01-12.2-9.6l-.1-.1a67.1 67.1 0 01-7-7l-.5-.6-1.8-2-2.2-2.6-.4-.5-1.7-2.2-2-2.7-1.3-2-.6-.8a68.7 68.7 0 00-1.8-3l-1.7-2.9-1.1-2.1-.4-.9c-.1-.1 0-.4.1-.5.2-.1.5 0 .6.1l2 2.7 2 2.7 2 2.6 2.1 2.6 3.8 4.4.6.6a270.4 270.4 0 006.8 7.3l2.3 2.4 4.7 4.7a155.4 155.4 0 007.4 6.7l.3.3 2.2 1.8.8.6a.3.3 0 010 .5l-.9.4-.6.2-1.2.6h-.2a46.2 46.2 0 01-5.4 2 69.7 69.7 0 01-7.7 2l-.5.2a36.9 36.9 0 01-3.4.7 84.8 84.8 0 01-7.9 1l-2 .1h-2.4-.2l-.3-.4-3.6-4.3-3.4-4.4-2.4-3.4-.8-1.2-3.1-4.7-3-4.8c-.2-.6-.6-1.1-.9-1.7l-1.7-3.2-.9-1.8-1.5-3.3-.5-1.2-1.7-4-.4-1.2a66.2 66.2 0 01-3-9.6l-.6-2.7-.5-2-.7-3.5-.3-1.8-.1-1a90.6 90.6 0 01-1-7.1l-.3-4-.3-4.4-.6 6.3-.7 6.3-.2 2-.7 5-1.3 9.5-1.7 9.6-.6 2.6a135.3 135.3 0 00-.7 3.3c-.4 1.9-.7 3.7-1.2 5.4a428.2 428.2 0 00-2 6.8 84.8 84.8 0 01-2 6l-.3.8-1.7 4.3a148.3 148.3 0 01-3.1 7c-.1.2-.3.3-.5.2a.4.4 0 01-.3-.4l1-3.5a148.7 148.7 0 012.2-6.9l.6-2.1.9-3 .3-.9.6-2.2 1.2-4.4.6-2.4 1-4.2.8-3 .4-1.4.6-2.4 2-9.6 1.6-9.3.6-4.3.4-2.7 1-6 .2-2a5102.1 5102.1 0 00-2 8.2l-1 3.3-.6 2.2-.4 1.3-2.4 7.3-3 7.4a53.4 53.4 0 01-3.2 7.2l-.5 1-1.2 2.5-1.3 2.2-.6 1.2-.6.9-3.2 5.2-4 5.2-1.7 2.3a65.6 65.6 0 01-4.5 5l-2.5 2.6c-.1.2-.4.2-.5.1a.4.4 0 01-.2-.6" />
                <path fill="#231f20" d="M381.7 601l-3.5-.9h-.2l-3.8-1.2-2.6-.9-2.4-.8-1.6-.7a160 160 0 01-9.3-4.4l-1.2-.6-1.6-1-2.3-1.4-2.5-1.6-3-2.3a37.2 37.2 0 01-3.2-2.4l-1.5-1.3-1.4-1.3-1-.8-1.9-1.8-2.7-2.7-2.4-2.8s-4.9-5.2-9.5-12c0 .2.2.3.3.5a170.4 170.4 0 012.9 5.3l1 1.8 3.3 4.8 1.2 1.6 2.2 3 1.4 1.5c.7 1 1.5 2 2.3 2.8a224.4 224.4 0 014 4.2l1.4 1.4a91.5 91.5 0 004.2 4c1 .7 1.9 1.6 2.8 2.4l1.6 1.3a92.5 92.5 0 007.5 5.8l2 1.4 2.7 1.9 4.8 3.2 5.5 3.4.2.2-.1.3-1.6 1.2-.4.3-.7.6a38.3 38.3 0 00-2.2 1.5l-.7.4-1.6 1-1.2.7a11.1 11.1 0 01-1.2.6l-1.2.6a11.5 11.5 0 01-1.3.6l-.6.2-1.9.8-.8.3-1.7.6-2.5.8h-.2a.4.4 0 01-.4-.2.4.4 0 01.3-.6l2.5-.9 1.6-.6a56.6 56.6 0 012.6-1.1l.7-.4.4-.1.8-.4 1.1-.6.4-.2.8-.5 1.1-.7a20.7 20.7 0 002.2-1.4l1.4-1 .8-.6.6-.5.4-.3.2-.2-4.1-2.4-5-3-3.6-2.4-1.3-.9-3-2.1-1.7-1.3a98.5 98.5 0 01-7.6-6l-1.5-1.3a96 96 0 01-4.3-4l-2.7-2.7a198.6 198.6 0 00-4-4.3l-1.4-1.5-3.7-4.6-3.4-4.8-1-1.7-2.1-3.3-.8-1.4a137 137 0 01-2-3.8l-1-1.9a118 118 0 01-2.3-5.4l-1.4-3.6-.3-1.1-1-3.2-.9.1h-.8l-1.5.2h-3l-1.5.1h-3l-1.5-.1-2.3-.2a43 43 0 00-2.2-.2l-2.2-.3a41 41 0 00-2.3-.4l-2.2-.4-.7-.1-1.5-.3-4.3-1.2-4.3-1.5a.4.4 0 01.2-.8l4.4 1 4.3.7 4.4.5h1.4l.8.1 2.2.2h8.8l1.3-.1h.8l2.2-.2 1.4-.2h.8l3.3-.5s.2 0 .3.2l.4 1.1.2.6a73.2 73.2 0 006.9 14l1.3 2.1 1.6 2.3 3.1 4.2.6.8 1.4 1.6.8 1 .5.6 1.8 2 2.5 2.7 2.7 2.5 1.9 1.7 1 .8 1.4 1.3 1.5 1.1 1.1.8 2 1.5 3.2 2.1 1.8 1.2 1.4.8 1.5 1 1.6.8 1.1.6a103.6 103.6 0 007.8 4l2.7 1.3 3.3 1.5 1.5.7 2.6 1 1.2.5 3.3 1.4a.4.4 0 01-.2.7M352 485.1l-.2-.1-2.9-2.2-2-1.4-1-.8-1.8-1.2-1.3-.9-2-1.2-1.2-.7a86.6 86.6 0 00-20.4-8.5l-2.2-.5-1.3-.3-3.7-.7-3.6-.5-3.7-.4h-1.3l-2.3-.2H299.7a49 49 0 00-9.7.6 81.3 81.3 0 00-14.5 3l-.8.2-2.7 1-.7.2-2.8 1a66.7 66.7 0 00-19.2 11.4l-1 1-1.8 1.4-3.4 3.2-.8-.5a10 10 0 00-5.3-1.5h-.2c-1 0-2 .2-2.8.5a9 9 0 00-2.5 1.2 8.5 8.5 0 00-3 4.5 10.3 10.3 0 00-.5 2.9v3c.2.9.5 1.8 1 2.7.3.8.8 1.6 1.5 2.4a10.3 10.3 0 0010.7 3c1-.3 1.9-.8 2.7-1.5.8-.6 1.5-1.4 2.1-2.2 0-.2.2-.2.4-.2h.1l.3.3v.3l-.7 1 1 1 .8.9 2 2.2 1.2 1.3 1.6 1.9 1.7 1.9 3.5 3.9 2.6 2.7 4.5 4.7 3.1 3.2a214.7 214.7 0 007.8 7.7l1.7 1.6c.2.2.2.4 0 .6l-.2.1h-.2l-2-1.7a300 300 0 01-4.7-4.2l-5.4-4.9-5.9-5.6-2.8-2.8-4.2-4.2-1.3-1.4-1.7-1.8-1.2-1.4-2-2.2-1.3-1.7c-.8.9-1.8 1.5-2.9 2-2 1-4.6 1.3-7 .8a12.5 12.5 0 01-9.6-10 16 16 0 01.3-7.2 10.8 10.8 0 0111.3-8.2c2.2.2 4.3.8 6.1 2l2.3-1.9 2-1.4 1-.8a167.6 167.6 0 0112.8-8.2l2.5-1.3.9-.5 2.8-1.4.6-.3 2.7-1.2.7-.3 3-1.2.6-.2a68 68 0 0122.5-4.7 58.1 58.1 0 013.8-.2l2.6.1h1.3l2.7.3h1.1l3.8.6.6.1 3.2.7c.5 0 .9.2 1.3.3l2.5.6 1.2.4a41.6 41.6 0 013.7 1.3 73 73 0 007 3l2.3 1.2a69.3 69.3 0 0113.6 9.6l1.8 1.6 2.7 2.7c.1.1.2.4 0 .5-.1.2-.4.2-.6.1M375.5 496.9c0 .7-.2 1.4-.3 2a12.1 12.1 0 01-7.8 9 15.4 15.4 0 01-13.7-2.1 94.2 94.2 0 01-15.6 18.2l-2.3 2.1-.5.5a74.4 74.4 0 01-4.4 3.7l-2.5 2-2.5 2-1.8 1.3-.8.5c-1.2 1-2.4 1.8-3.7 2.7l-1.5 1c-.1.1-.4 0-.5-.1a.4.4 0 010-.6l1.5-1 3.6-2.9.7-.5 1.7-1.5 2.4-2 2.4-2.1 1.5-1.4.8-.7 1.8-1.7.5-.5a79.8 79.8 0 006.5-6.9 76.7 76.7 0 007.8-9.8 94 94 0 003.4-5.2l.8-1.5 1.3 1.1c1.6 1.4 3.6 2.3 5.7 2.7 2.1.4 4.3.2 6.2-.5 1-.4 1.8-1 2.5-1.6.8-.6 1.4-1.3 2-2.2a10.4 10.4 0 001.4-4.5v-.7-.8a8.7 8.7 0 00-2-5.5c-1.2-1.5-3-2.7-5.2-3.5-2-.7-4.3-.9-6.5-.6a12 12 0 00-6.2 2.7h-.5a.4.4 0 010-.6c1.4-1.8 3.7-3.2 6.3-4a15.5 15.5 0 017.6 0c2.7.7 5 2 6.9 4a11.6 11.6 0 013 7.5v.2c0 .3.1.6 0 .8z" />
                <path fill="#231f20" d="M237.3 496.6c0 .3.1.6.3.8v.1l.2.2h.1l.2.2c.4.2 1 .2 1.5.2a9 9 0 003.7-1.5c.4-.3 1-.2 1.3.1.5.5.5 1.2 0 1.6l-.7.7a5.3 5.3 0 01-.8.7l-.7.5h-.2a6 6 0 01-1 .6l-1 .3a9.8 9.8 0 01-2.8.4h-.2a11.2 11.2 0 01-4-.7 10.8 10.8 0 01-3.1-1.7l-.3-.2a.4.4 0 01.3-.7h.1l.4.1.5.2h.3l.6.2a16.8 16.8 0 003.4.5h1.5l-.2-.2-.2-.2v-.1l-.4-.5-.4-1.3v-.7V495.6l.3-1.2a4.4 4.4 0 012.5-2.7 4.6 4.6 0 011.8-.4c.6 0 1.2.1 1.7.4.2 0 .3.2.3.4-.1.2-.2.3-.4.3h-.1c-.6-.2-1.3-.2-2 0a3.6 3.6 0 00-1.6.8 3 3 0 00-.9 1.6v1.4zM363.2 498.5h.5a18.8 18.8 0 003.5-.8l.6-.2.3-.1.5-.2.4-.2h.1l.3.1a.4.4 0 010 .5l-.2.2-.5.5-.9.6a11.6 11.6 0 01-3.6 1.7 11.3 11.3 0 01-6.3 0c-.4 0-.7-.2-1-.4h-.2l-.7-.5-.3-.1-.6-.5-.8-.6c-.4-.3-.6-.9-.3-1.4.2-.5.9-.7 1.4-.5 1.5.8 2.7 1.1 3.9 1.2h.9l.7-.4.2-.1v-.1l.2-.2.2-.2v-.2l.1-.4a4.8 4.8 0 00-.2-2 3 3 0 00-1-1.5l-.8-.4a4 4 0 00-3 0c-.2 0-.3 0-.4-.2-.1-.2 0-.4.1-.5.7-.3 1.5-.5 2.4-.5.4 0 .8 0 1.3.2a4 4 0 012.1 1.4 4.3 4.3 0 01.9 1.7v.5l.1.3.1.5v1.1l-.1.2-.2.5-.1.3-.4.5-.1.2h-.1 1M297.4 506.4H295.8a9.2 9.2 0 01-5.5-2.5 8.4 8.4 0 01-2.5-4.6 7.2 7.2 0 01.7-4.6l.2-.3.3-.2h.1c.2 0 .3.3.3.5l-.2.3a6.4 6.4 0 00-.2 4 7.3 7.3 0 006.9 5.3H296.5a7.7 7.7 0 001.9-.4 9.2 9.2 0 003.8-2.3l1.1-1.5c.5-1 .8-1.9 1-3v-1.3l.3-.3h.1c.2 0 .4 0 .4.2l.1.4a6.5 6.5 0 01.3 1.3 15.2 15.2 0 017.2-1.6 19.9 19.9 0 019.8 3 19.6 19.6 0 018.3 11.6c.3 1.1.6 2.5.7 3.8v2a12.6 12.6 0 01-1.4 6c-.7 1.2-1.5 2.3-2.5 3.3-1.6 1.6-3.9 3-6.6 3.9a25.8 25.8 0 01-17.6-1.3 31 31 0 01-5.4-3.2l-.7-.5a.4.4 0 010-.5l.2-.2h.2l.8.5a30.6 30.6 0 0010 3.8c4.2.7 8.3.4 11.8-.8 2.3-.8 4.1-2 5.6-3.4.8-.9 1.5-1.8 2-2.7a11.7 11.7 0 001.2-6.7 19.5 19.5 0 00-7.7-13.9 17.5 17.5 0 00-9.7-3.3 16.9 16.9 0 00-5.8 1l-.3.1a7.8 7.8 0 01-6.7 8l-1.5.1M291.3 523.9l-.7.5c-.3.2-.6.5-1 .6a17.8 17.8 0 01-6.7 2.5 18.5 18.5 0 01-10.3-1.3c-2-.9-3.6-2.2-5-3.7a13.7 13.7 0 01-3-9 25 25 0 01.2-3c.3-2 1-4 2-5.8a13.7 13.7 0 018.2-6.6c1.3-.4 2.6-.5 3.9-.5h.3c1 0 2.1 0 3 .3l1.9.5.8.3a.4.4 0 01-.2.8l-.7-.2c-.6-.1-1.2-.3-1.9-.3-2.2-.3-4.4 0-6.5.8a12.7 12.7 0 00-6.8 6 16.1 16.1 0 00-1.5 10.4 11 11 0 006.3 8c1.4.7 3 1.2 4.7 1.5a18.7 18.7 0 0012.5-2.5l.5-.4h.5c.2.2.2.5 0 .6z" />
                <path fill="#231f20" d="M305 514.4c0 1.5-1 2.7-2.1 2.7-1.2 0-2.2-1.2-2.2-2.7 0-1.5 1-2.7 2.2-2.7 1.1 0 2 1.2 2 2.7M289.6 511c1 0 2 1 2 2.4s-1 2.5-2 2.5-1.9-1.1-1.9-2.5c0-1.3.9-2.4 2-2.4M332.2 489.7a37.6 37.6 0 00-4.4-2.4l-1.3-.5-.6-.3-.6-.3c-1.2-.5-2.4-1-3.8-1.4a93 93 0 00-4.3-1.4l-.8-.2a119.4 119.4 0 00-11.2-2.6 93.3 93.3 0 00-31 .4l-.7.2a.4.4 0 01-.5-.3.4.4 0 01.3-.6l.7-.2h.5a38.6 38.6 0 014.6-1.1 90.8 90.8 0 0138.3.8 43 43 0 0117.7 9.7l.3-.4.4-.7h.5l.1.2a4.1 4.1 0 01.6 1.6v.5c0 .3-.1.7-.3 1l-.7.7a3 3 0 01-.8.4 4 4 0 01-1.2.1h-.4a.4.4 0 01-.1-.5l.3-.6.4-.8a79.3 79.3 0 00-2-1.3" />
            </g>
        </svg>

        <clipPath id="b" clipPathUnits="userSpaceOnUse">
            <path d="M0 841.9h595.3V0H0z" />
        </clipPath>
    </defs>
    <g clip-path="url(#a)" transform="matrix(1.32292 0 0 -1.32292 -243.8 837)">
        <path fill="#ed1c24" d="M187.8 498.9c0 44.5 26.5 82.8 64.5 100l-5.5 4.2a113.4 113.4 0 01-19.9-190c.7-.6 1.7.4.8 1a109.6 109.6 0 00-39.9 84.8M297.6 615.1c-11.7 0-23.1-1.8-33.8-5.1l3-5.7a109.8 109.8 0 00100.8-190.2c-.9-.6 0-1.6.8-1a113.4 113.4 0 01-70.7 202" />
        <path fill="#ed1c24" d="M225.8 465l-.4.2-.8.2a11.4 11.4 0 01-3.5-.2 1 1 0 01-.4-.2l-.2-.4v-24.1c0-.6.2-1 .5-1.3.3-.3.7-.4 1.1-.4h12.2l.4.1.2.4.2.7a8.8 8.8 0 01-.2 2.8l-.2.3-.4.1H226v21.4l-.2.4M241.4 450.6c0 .7.1 1.3.3 1.9l.7 1.4a3.5 3.5 0 003 1.4c1.2 0 2.2-.4 2.8-1.2.6-.9 1-2 .9-3.5zm8 7.7c-1 .4-2.4.6-4 .6-1.4 0-2.7-.2-3.8-.7a8 8 0 01-3-2c-.8-1-1.4-2-1.8-3.4-.5-1.3-.7-2.7-.7-4.4 0-1.7.2-3.2.6-4.4a7.6 7.6 0 014.9-5c1.3-.5 2.7-.7 4.3-.7a17.4 17.4 0 017 1.5l.1.3.2.4v.5a11.9 11.9 0 01-.1 2.1c0 .2-.1.2-.2.3h-.3l-.8-.1a19.2 19.2 0 00-3-.9l-2.4-.2c-.9 0-1.7.1-2.3.4a3.8 3.8 0 00-2.4 2.6c-.2.6-.3 1.3-.3 2.1h11.1c.5 0 .9.2 1.2.5.3.3.4.7.4 1.4v.8c0 1.3-.2 2.5-.5 3.6a7 7 0 01-4.2 4.7M256.8 439.8l.7-.5 1.2-.4a11.8 11.8 0 013.6-.6c1.2 0 2.2.1 3.2.4 1 .3 1.8.7 2.5 1.2s1.3 1.2 1.7 2c.4.8.6 1.7.6 2.8a5.1 5.1 0 01-1.4 3.7 15 15 0 01-4.7 2.5l-1.5.6c-.5.2-.8.5-1 .8-.3.3-.4.6-.4 1l.1.8c.1.3.3.5.5.6.2.2.5.4.9.5l1.2.1c.6 0 1.2 0 1.7-.2a11.4 11.4 0 002.3-1l.6-.2.3.1.2.3.1.5a10.9 10.9 0 010 2.3l-.2.3-.3.3c-.1.2-.3.3-.6.4a12.2 12.2 0 01-7.4.4 7 7 0 01-2.3-1.2 5.2 5.2 0 01-2-4.3c0-.8.1-1.6.4-2.2a5 5 0 011-1.6c.4-.4.9-.8 1.4-1a15 15 0 013.2-1.5l1.4-.6c.5-.2.8-.5 1-.8.3-.3.4-.6.4-1s0-.7-.2-1c-.1-.3-.3-.5-.6-.7-.2-.2-.6-.3-1-.4l-1.2-.1c-.7 0-1.4 0-2 .2a11.7 11.7 0 00-2.6 1.2l-.6.2h-.3l-.2-.3-.2-.6a8.9 8.9 0 01.1-2.3c.1-.3.2-.6.4-.7M277.6 452.5l.8 1.4a3.5 3.5 0 002.9 1.4c1.3 0 2.3-.4 2.9-1.2.6-.9.9-2 .9-3.5h-7.8c0 .7.2 1.3.3 1.9m10.5-13.1l.7.4.2.3.1.3v.6a12.8 12.8 0 010 2.1l-.2.3h-.4l-.8-.1a19.3 19.3 0 00-3-.9l-2.3-.2c-1 0-1.7.1-2.3.4-.7.2-1.2.5-1.6 1a4 4 0 00-.9 1.6c-.2.6-.3 1.3-.3 2.1h11.2c.5 0 .9.2 1.1.5.3.3.5.7.5 1.4v.8c0 1.3-.2 2.5-.5 3.6-.4 1-.9 2-1.6 2.8a7 7 0 01-2.6 1.9c-1.1.4-2.4.6-4 .6-1.4 0-2.7-.2-3.9-.7a8 8 0 01-3-2c-.7-1-1.3-2-1.8-3.4-.4-1.3-.6-2.7-.6-4.4 0-1.7.2-3.2.6-4.4.4-1.3 1-2.4 1.8-3.2.9-.8 1.9-1.5 3.1-1.9a17.6 17.6 0 0110.4.5M305.8 455c-.2-.6-.5-1.1-.8-1.5-.4-.4-.9-.8-1.4-1-.6-.2-1.3-.3-2.2-.3H299v9h2.3c.5 0 1 0 1.6-.2a3.4 3.4 0 002.7-1.9c.3-.5.5-1.3.5-2.2a6 6 0 00-.3-2m5.5 5.3a6.7 6.7 0 01-3.4 3.9 9 9 0 01-2.4.8 18.7 18.7 0 01-3.8.4h-6.3c-.5 0-1-.1-1.3-.5-.4-.3-.5-.8-.5-1.4v-23.9l.1-.3c0-.2.2-.2.4-.3l.9-.2a11.5 11.5 0 013.4.2c.2 0 .3.1.4.3l.2.3v8.5h2.2c1.7 0 3.3.2 4.5.6a9 9 0 013.3 1.8c1 .8 1.6 1.8 2 3a10.5 10.5 0 01.3 6.8M318 450.6c0 .7 0 1.3.3 1.9.1.5.4 1 .7 1.4a3.5 3.5 0 003 1.4c1.2 0 2.2-.4 2.8-1.2.6-.9 1-2 .9-3.5zm12.2-2.8c.3.3.5.7.5 1.4v.8c0 1.3-.2 2.5-.5 3.6-.4 1-.9 2-1.6 2.8a7 7 0 01-2.6 1.9c-1.1.4-2.4.6-4 .6-1.4 0-2.7-.2-3.9-.7a8 8 0 01-3-2c-.7-1-1.3-2-1.8-3.4-.4-1.3-.6-2.7-.6-4.4 0-1.7.2-3.2.6-4.4.4-1.3 1-2.4 1.8-3.2.9-.8 1.9-1.5 3.1-1.9a17.4 17.4 0 0111.2.8l.2.4.1.4v.5a11.9 11.9 0 010 2.1c0 .2-.2.2-.2.3h-.3l-.8-.1a19 19 0 00-3-.9l-2.4-.2c-1 0-1.7.1-2.3.4a3.8 3.8 0 00-2.5 2.6c-.2.6-.2 1.3-.2 2.1h11c.6 0 1 .2 1.2.5M344.4 439.2l.3.7v1.4a7 7 0 010 1.5l-.3.3h-.2-.3a10 10 0 00-1-.3h-.8c-.8 0-1.3.2-1.6.7-.4.5-.5 1.2-.5 2.2v8.6h4c.2 0 .4.2.6.5l.2 1.6v1l-.2.6c0 .2-.2.3-.3.4H340v4.2l-.1.3-.4.3a3 3 0 01-.8.2 12.9 12.9 0 01-3.3-.2.8.8 0 01-.4-.3l-.2-.3v-4.1h-2.1l-.4-.1a.8.8 0 01-.2-.4l-.2-.6a8.4 8.4 0 01.2-2.6c0-.3.3-.5.5-.5h2.2v-9.4c0-1.1.2-2 .4-2.9a4.4 4.4 0 013-3.2 8.2 8.2 0 013.7-.4 8.8 8.8 0 012 .5c.2 0 .4.2.5.3M351.5 450.6c0 .7.1 1.3.3 1.9l.7 1.4a3.5 3.5 0 003 1.4c1.3 0 2.2-.4 2.8-1.2.7-.9 1-2 1-3.5zm10.7 5.8a7 7 0 01-2.7 1.9c-1 .4-2.4.6-4 .6-1.4 0-2.7-.2-3.8-.7a8 8 0 01-3-2c-.8-1-1.4-2-1.8-3.4a14.8 14.8 0 010-8.9c.4-1.2 1-2.3 1.8-3.1.8-.8 1.8-1.5 3-1.9a17.4 17.4 0 0111.2.8l.2.4.2.4v.5a11.9 11.9 0 01-.1 2.1c0 .2-.1.2-.2.3h-.3l-.8-.1a19 19 0 00-3-.9l-2.4-.2c-.9 0-1.7.1-2.3.4a3.8 3.8 0 00-2.4 2.6c-.2.6-.3 1.3-.3 2.1h11.1c.5 0 1 .2 1.2.5.3.3.4.7.4 1.4v.8c0 1.3-.2 2.5-.5 3.6-.3 1-.8 2-1.5 2.8M371.7 458.1l-.4.3-.6.1a9.5 9.5 0 01-2.9-.1.7.7 0 01-.3-.3l-.1-.3v-18.3-.4l.5-.2.8-.2a12.5 12.5 0 013.3.2l.4.2.1.4v11.4a16.3 16.3 0 002 2.5l1 .5.8.2h.7a6.7 6.7 0 001-.4h.7l.2.4.2.8a14.2 14.2 0 01-.2 3.3l-.1.3-.4.2a4.3 4.3 0 01-1.2.2h-.6l-1.1-.1-1.2-.5-1.2-1.1c-.4-.5-.9-1-1.3-1.7v2.3l-.1.3M239 407.6c-.6-.2-1.1-.2-1.6-.2-.4 0-.8.1-1.2.4-.5.3-.7.6-.8 1-.1.4 0 .8.2 1.2l.5.6.8.1.9-.1c.3-.1.7-.3 1-.6l1.3-.8zm3.7 6.2c-.3.4-.7.7-1.3 1.1a5.7 5.7 0 01-1.9.8l-.8.2h-.6l-.3-.2a1.9 1.9 0 01-.4-.6v-.2-.1-.1l.5-.1a8.4 8.4 0 001.6-.3 4 4 0 001.8-1.1l.3-.7v-.8l-.5-.8-.4-.6-1 .6a9 9 0 01-1.8 1l-1.5.3c-.5 0-.9-.1-1.3-.4-.4-.2-.7-.5-1-1a3 3 0 01-.4-1v-1.1c.1-.4.3-.7.6-1 .2-.4.6-.6 1-1l1.5-.5 1.7.1-.5-.7c0-.1-.1-.2 0-.2v-.2l.4-.3.4-.2h.4l3.4 5.3.6 1.4c.1.4.2.8 0 1.2 0 .4-.2.8-.5 1.2M254.4 407.3l-.1.2-.2.1a4.4 4.4 0 01-1 .5h-.2v-.2l-3-5.7-1.8-.6c-.5 0-1 0-1.3.2l-.7.5c-.2.3-.3.5-.3.8v.9l.5 1.2 2.5 4.8v.1l-.1.2-.2.2a5 5 0 01-.7.3l-.3.1h-.2v-.1l-2.6-5-.6-1.6v-1.4c0-.4.2-.8.5-1.2a3.5 3.5 0 012.8-1.3c.6 0 1.2.1 2 .4l-.6-1v-.2-.1l.2-.2a2.8 2.8 0 011-.4l.2.1 4.1 8.3v.1M262.4 403a1.9 1.9 0 01.1.6v.1l-.3.3c0 .2-.2.3-.4.4a5.1 5.1 0 01-1.2.7l-1.5.3-1.2-.1-.9-.6-.5-1c-.2-.3-.2-.7-.2-1 0-.3 0-.6.2-.9l.5-.7a8.8 8.8 0 011.3-1.3l.6-.6.3-.7v-.7l-.4-.5-.6-.3h-.6a3.4 3.4 0 00-1.7.7 5 5 0 00-1 1l-.2.2h-.2-.1l-.1-.2-.2-.3a2 2 0 010-.5v-.3l.2-.4.5-.4a5.6 5.6 0 013-1.2h1.2c.4.2.8.4 1 .7a3 3 0 011 2c0 .4-.2.7-.3 1l-.5.7a10.8 10.8 0 01-1.3 1.3l-.6.6a2 2 0 00-.3.7v.7c0 .2.2.3.3.4.1.2.3.3.5.3h.6l.7-.1.8-.4a5 5 0 00.8-.9l.2-.2h.1l.2.1v.2l.2.3M270.3 398.5c0-.3-.2-.5-.3-.7l-.6-.5c-.2-.2-.4-.3-.7-.3h-.9a2 2 0 00-1.2 1 2 2 0 00-.1 1.5c0 .3.2.5.3.7l.5.6.7.2h1c.5-.2 1-.5 1.2-1 .2-.4.2-.9 0-1.5m-4.8-4.8l2.3-.8c.6-.1 1-.4 1.2-.7.3-.2.3-.6.2-1l-.3-.6-.6-.4-.9-.1c-.4 0-.8 0-1.3.2-.8.2-1.3.5-1.7.8-.4.3-.5.7-.4 1.2l.2.4.3.3.4.3.6.4m8 7.2l-2.8.7a5.3 5.3 0 01-1.3.6l-1.5.2c-.4 0-.9-.2-1.2-.4a3 3 0 01-1-.8c-.3-.3-.5-.8-.7-1.3l-.1-1.1.2-1-.8-.7c-.3-.2-.4-.6-.6-1v-.8l.6-.9c-.3 0-.5-.2-.7-.3a3 3 0 01-.6-.4 2.4 2.4 0 01-.6-1.1v-1c0-.4.2-.7.4-1l1.1-.9a8.2 8.2 0 013.8-1 4 4 0 011.5.3 2.8 2.8 0 011.7 1.9v1c0 .4-.2.7-.4 1l-.8.7a5 5 0 01-1.2.5l-2.3.8c-.3 0-.6.3-.8.5-.1.2-.2.4-.1.6l.2.5.4.3.7-.5 1-.5c.5-.1 1-.2 1.5-.1.4 0 .8 0 1.2.3.4.2.7.4 1 .8a3.7 3.7 0 01.8 2.2l-.3 1 1.3-.4h.2l.3.5v.5c0 .2 0 .2-.2.3M281.6 395.3l-5 .8c0 .4.2.8.4 1l.6.9a2.4 2.4 0 002 .5c.8-.1 1.4-.5 1.7-1a3 3 0 00.3-2.2m1.2 2.7l-1 1.1c-.5.4-1.1.6-1.8.7h-2c-.5-.2-1-.4-1.5-.8-.4-.4-.8-.8-1.1-1.4a7.3 7.3 0 01-.8-4.3 3.7 3.7 0 011.9-2.9c.5-.3 1.1-.5 1.9-.6a7.6 7.6 0 013.4.1l.1.2a2 2 0 01.2.5v.6h-.2-.4a9 9 0 00-1.5-.2l-1.2.1c-.6 0-1 .3-1.4.5l-.8.8c-.2.3-.3.7-.3 1.1v1.4l6-1h.6l.3.6v.3a6 6 0 010 1.7c0 .6-.2 1-.4 1.5M292.4 398l-.2.2h-.2l-5.2.4h-.2l-.1-.1-.1-.2v-.4-.5l.2-.2 4-.3-4.6-6a7 7 0 01-.3-.5 1.4 1.4 0 01-.1-.5v-.3-.5l.4-.2 5.7-.4h.1l.1.1.1.2v.3c.1.2 0 .3 0 .4V389.8h-.2l-4.3.4 4.5 6a5 5 0 01.3.5 1.6 1.6 0 01.1.5V398.1M296.7 394l.1 1.2.5.9a2.4 2.4 0 002 .9c.7 0 1.3-.2 1.8-.7a3 3 0 00.6-2.1zm6.4 1.7c-.1.5-.4 1-.7 1.4-.3.4-.8.7-1.3.9-.5.2-1.1.3-1.8.3s-1.3-.1-1.9-.4c-.5-.2-1-.6-1.3-1-.4-.5-.7-1-.9-1.6a7 7 0 01-.3-2.2c0-.8.2-1.6.4-2.2a3.7 3.7 0 012.4-2.5c.5-.2 1.2-.2 2-.2a7.5 7.5 0 013.2.8l.1.1v1.1l-.2.1-.4-.1a8.3 8.3 0 00-1.5-.5l-1.1-.2c-.6 0-1 .1-1.5.3-.3.1-.7.3-.9.6l-.5 1-.2 1.4 6 .2.5.1c.2.1.2.3.2.6v.3a6 6 0 01-.3 1.7M308 398.5l-.3.1a3.4 3.4 0 01-1.1-.2h-.1v-.2l.8-9.2v-.1l.2-.1h.2a3.5 3.5 0 011.1.1l.1.1v.2l-.8 9.1v.2M307.9 400.6c.1.2.2.5.1.9 0 .4-.1.6-.3.7-.1.2-.4.2-.8.2s-.7-.2-.8-.3l-.2-.8c0-.4.2-.7.3-.8.2-.1.5-.2.9-.1.4 0 .6 0 .8.2M319.6 392.5l-.1.2-.1.1h-.1c-.1 0-.2 0-.3-.2l-.5-.5-.7-.5-1-.4h-1.1a2 2 0 00-.9.6l-.7 1-.4 1.6c-.2 1.1-.1 2 .2 2.8.3.6.9 1 1.7 1.2h1a3.9 3.9 0 001.4-.5l.4-.2.2.2v.6a4 4 0 01-.2.5v.2l-.3.1-.4.3-.7.2a4.8 4.8 0 01-3.2-.6c-.5-.3-1-.6-1.2-1.1-.3-.5-.6-1-.7-1.7V394c.2-.8.4-1.5.7-2 .3-.6.6-1.1 1-1.5l1.4-.7h1.8a4.5 4.5 0 011.7.6 4.1 4.1 0 011 .8l.2.2v.4a3.4 3.4 0 01-.1.7M329.2 400.6c-.2.5-.5.8-.8 1l-1.2.6a3.5 3.5 0 01-3-.8l-1-1.5-1.5 5.3v.1h-.5a3.4 3.4 0 01-1-.3l-.1-.1v-.1l3.6-13.3.2-.1h.3a3.3 3.3 0 011 .3l.1.1v.2l-1.7 6.2c.3.7.6 1.2 1 1.6.3.4.6.7 1 .8h1c.2 0 .5-.1.7-.3l.5-.7.5-1.2 1.4-5.2v-.1l.2-.1h.3a3.6 3.6 0 011 .4h.1v.2l-1.4 5.5c-.2.6-.4 1.1-.7 1.5M341 403.3l-.7 1.5-1 1c-.4.1-.8.3-1.3.3-.4 0-1 0-1.5-.3-.5-.2-1-.5-1.3-1-.4-.4-.7-1-1-1.7l-.5 1.1v.2h-.2-.2a3.4 3.4 0 01-1-.4v-.2-.1l3.4-8.6.1-.1h.4a3.4 3.4 0 011 .4l.1.2v.1l-2.4 6c.2.7.5 1.3.8 1.7.3.5.6.8 1 1h.9c.2 0 .5 0 .7-.2.3-.1.5-.4.7-.6l.6-1.2 2-5v-.1h.5a3.7 3.7 0 011 .5v.2zM345.8 405.4l-.4 1v1.1a2.4 2.4 0 001.3 1.7c.8.3 1.4.4 2 .2a3 3 0 001.5-1.6zm7.8-1.2v.2l-.2.2-.2.2h-.1-.1l-.3-.2a8.5 8.5 0 00-1.1-1.2l-1-.6c-.5-.3-1-.4-1.4-.5-.4 0-.8 0-1.1.2-.4.1-.7.4-1 .7l-.7 1.1 5.3 2.9c.2 0 .3.2.4.3l-.1.6-.2.3a6 6 0 01-1 1.4 3.5 3.5 0 01-2.8 1.1 4.6 4.6 0 01-3.3-1.7c-.3-.5-.6-1-.7-1.6-.2-.5-.2-1.1 0-1.8 0-.7.3-1.3.7-2 .4-.8.8-1.4 1.3-1.8a3.7 3.7 0 013.2-1.1c.6 0 1.2.2 1.9.6a7.4 7.4 0 012.6 2.2v.5M361.4 409a1.7 1.7 0 01-.4.4h-.2l-.1-.1a3 3 0 00-.7-.8c-.4-.2-.8-.3-1.1-.1a3 3 0 00-1 1l-2.8 4.4 2 1.3v.2c0 .1 0 .3-.2.5l-.2.3-.1.1h-.2-.1l-2-1.3-1.2 1.9h-.1-.2-.2a3.7 3.7 0 01-.7-.5l-.2-.2v-.1-.2l1.2-1.8-1.1-.7-.1-.1v-.2-.2l.2-.3.4-.4h.3l1 .7 3-4.5.9-1 .9-.6a2 2 0 011 0 3.5 3.5 0 011.5.8 5.6 5.6 0 01.6.6l.1.2v.3l-.2.4" />
    </g>
    <g clip-path="url(#b)" transform="matrix(1.32292 0 0 -1.32292 -243.8 837)">
        <path fill="#73c82c" d="M280.6 539.7s12.4 3 20.3 3c8 .3 14.3 0 14.3 0s4 12.5 10.3 23.5c6.3 11 24.6 29.2 36.8 37 12.3 7.9 11.8 7.4 11.8 7.4s-7.2 6.8-20.3 10.7l4.4 3.7s-9.1 5.5-30.3 6.4a224 224 0 01-17.6-26.4c-12.6-24.3-13.9-54.7-13.9-54.7s-4.7 23.9-13.7 43-21.2 32.7-21.2 32.7-10.4-2.6-21.5-10c9-6 20-15.5 25-22.5-11.2 7.7-23 14.4-32.4 17.2a79.7 79.7 0 01-20.4-17.9c17.4-6 30.7-11.6 41.2-19.3 10.4-7.8 22-23.2 27.2-33.8" />
        <path fill="#231f20" d="M231.6 583.8a122 122 0 0018.3-10.5 91 91 0 008-6.6l2-1.8 1.8-1.8a79.6 79.6 0 007.1-7.8l3.3-4.1 2.2-2.8 1.1-1.5a387.6 387.6 0 013.7-4.4h.2c.2.1.3.4.2.6a93 93 0 01-14.6 23 66.2 66.2 0 01-22 16.2 132.6 132.6 0 01-15 6.5l-4.6 1.6-.5.2-8.6 2.8.7 1 .7.7 1.3 1.4.7.8 1.4 1.4a75 75 0 012 2.1l1.2 1 .4.4.7.6.8.8 1.4 1.2 2.4 1.8 2.4 1.7c.2.2.3.5.2.7-.2.2-.5.3-.7.1l-2.6-1.5-2.5-1.8-1.6-1.2-.8-.6-.8-.6a31 31 0 00-.4-.4l-1.1-1-1.5-1.2-.8-.8-1.4-1.3-.8-.8-1.4-1.4-.7-.8-1.4-1.5-1.6-1.6a.3.3 0 01.1-.5l1.3-.4 10-3.7.5-.2 4.5-1.8 4.8-2.2M237.7 615.5l1.4-.8a63 63 0 003.6-2l.7-.5 1-.7.6-.4 1.2-.8a95.1 95.1 0 0012.9-11 130.2 130.2 0 006.1-6.3l.3.1c.1.1.2.4 0 .5a129.3 129.3 0 01-18 18.3 34.8 34.8 0 01-1.8 1.3l-1.1.9a44.8 44.8 0 00-2.6 1.7l.6.3 1.2.7 1 .6 2.1 1.3.9.5 1.4.8.7.4 1.5.8.8.4 1.5.8 1.1.5 1.2.6.5.2 1.9 1 .2.4c0 .2-.3.3-.5.3l-2-.5-.5-.2a26.6 26.6 0 01-2.5-.7l-1.7-.6-.8-.3-1.6-.7-.8-.4-1.6-.7a38.1 38.1 0 00-2.5-1.4l-1-.5-1.9-1.2-3.5-2.2a.3.3 0 010-.5M261.2 625.8a110 110 0 015.7-8.7l1.5-2.4a262.8 262.8 0 014.5-7.3l2.4-4.1.7-1.2a29.6 29.6 0 002.6-4.5l.4-.9 1-1.7 2.6-5.2 3.2-7.1 2.3-6 .4-1.1.4-1.2.8-2.2 3-9.4 1-3.5c0-.6.2-1.2.4-1.7l2-7.5v-.2l.2-.1h.4l.1.2v.1a303.6 303.6 0 011.6 11l.7 4 .3 1.4.8 4.3.3 1.1.2 1 .4 1.7.7 2.7.3 1c0 .6.2 1.1.3 1.6l.8 2.6a55.5 55.5 0 01.8 2.6l1 2.6c.3 1.4.8 2.7 1.3 4a203.2 203.2 0 012.6 6.2l1.5 3.2.8 1.7 1.7 3.3.8 1.6 2.8 4.7 2.9 4.7 3 4.6 3.2 4.5 3 4h3.2a68.8 68.8 0 0024.4-5l.5-.3a126.9 126.9 0 01-12.2-9.6l-.1-.1a67.1 67.1 0 01-7-7l-.5-.6-1.8-2-2.2-2.6-.4-.5-1.7-2.2-2-2.7-1.3-2-.6-.8a68.7 68.7 0 00-1.8-3l-1.7-2.9-1.1-2.1-.4-.9c-.1-.1 0-.4.1-.5.2-.1.5 0 .6.1l2 2.7 2 2.7 2 2.6 2.1 2.6 3.8 4.4.6.6a270.4 270.4 0 006.8 7.3l2.3 2.4 4.7 4.7a155.4 155.4 0 007.4 6.7l.3.3 2.2 1.8.8.6a.3.3 0 010 .5l-.9.4-.6.2-1.2.6h-.2a46.2 46.2 0 01-5.4 2 69.7 69.7 0 01-7.7 2l-.5.2a36.9 36.9 0 01-3.4.7 84.8 84.8 0 01-7.9 1l-2 .1h-2.4-.2l-.3-.4-3.6-4.3-3.4-4.4-2.4-3.4-.8-1.2-3.1-4.7-3-4.8c-.2-.6-.6-1.1-.9-1.7l-1.7-3.2-.9-1.8-1.5-3.3-.5-1.2-1.7-4-.4-1.2a66.2 66.2 0 01-3-9.6l-.6-2.7-.5-2-.7-3.5-.3-1.8-.1-1a90.6 90.6 0 01-1-7.1l-.3-4-.3-4.4-.6 6.3-.7 6.3-.2 2-.7 5-1.3 9.5-1.7 9.6-.6 2.6a135.3 135.3 0 00-.7 3.3c-.4 1.9-.7 3.7-1.2 5.4a428.2 428.2 0 00-2 6.8 84.8 84.8 0 01-2 6l-.3.8-1.7 4.3a148.3 148.3 0 01-3.1 7c-.1.2-.3.3-.5.2a.4.4 0 01-.3-.4l1-3.5a148.7 148.7 0 012.2-6.9l.6-2.1.9-3 .3-.9.6-2.2 1.2-4.4.6-2.4 1-4.2.8-3 .4-1.4.6-2.4 2-9.6 1.6-9.3.6-4.3.4-2.7 1-6 .2-2a5102.1 5102.1 0 00-2 8.2l-1 3.3-.6 2.2-.4 1.3-2.4 7.3-3 7.4a53.4 53.4 0 01-3.2 7.2l-.5 1-1.2 2.5-1.3 2.2-.6 1.2-.6.9-3.2 5.2-4 5.2-1.7 2.3a65.6 65.6 0 01-4.5 5l-2.5 2.6c-.1.2-.4.2-.5.1a.4.4 0 01-.2-.6" />
        <path fill="#231f20" d="M381.7 601l-3.5-.9h-.2l-3.8-1.2-2.6-.9-2.4-.8-1.6-.7a160 160 0 01-9.3-4.4l-1.2-.6-1.6-1-2.3-1.4-2.5-1.6-3-2.3a37.2 37.2 0 01-3.2-2.4l-1.5-1.3-1.4-1.3-1-.8-1.9-1.8-2.7-2.7-2.4-2.8s-4.9-5.2-9.5-12c0 .2.2.3.3.5a170.4 170.4 0 012.9 5.3l1 1.8 3.3 4.8 1.2 1.6 2.2 3 1.4 1.5c.7 1 1.5 2 2.3 2.8a224.4 224.4 0 014 4.2l1.4 1.4a91.5 91.5 0 004.2 4c1 .7 1.9 1.6 2.8 2.4l1.6 1.3a92.5 92.5 0 007.5 5.8l2 1.4 2.7 1.9 4.8 3.2 5.5 3.4.2.2-.1.3-1.6 1.2-.4.3-.7.6a38.3 38.3 0 00-2.2 1.5l-.7.4-1.6 1-1.2.7a11.1 11.1 0 01-1.2.6l-1.2.6a11.5 11.5 0 01-1.3.6l-.6.2-1.9.8-.8.3-1.7.6-2.5.8h-.2a.4.4 0 01-.4-.2.4.4 0 01.3-.6l2.5-.9 1.6-.6a56.6 56.6 0 012.6-1.1l.7-.4.4-.1.8-.4 1.1-.6.4-.2.8-.5 1.1-.7a20.7 20.7 0 002.2-1.4l1.4-1 .8-.6.6-.5.4-.3.2-.2-4.1-2.4-5-3-3.6-2.4-1.3-.9-3-2.1-1.7-1.3a98.5 98.5 0 01-7.6-6l-1.5-1.3a96 96 0 01-4.3-4l-2.7-2.7a198.6 198.6 0 00-4-4.3l-1.4-1.5-3.7-4.6-3.4-4.8-1-1.7-2.1-3.3-.8-1.4a137 137 0 01-2-3.8l-1-1.9a118 118 0 01-2.3-5.4l-1.4-3.6-.3-1.1-1-3.2-.9.1h-.8l-1.5.2h-3l-1.5.1h-3l-1.5-.1-2.3-.2a43 43 0 00-2.2-.2l-2.2-.3a41 41 0 00-2.3-.4l-2.2-.4-.7-.1-1.5-.3-4.3-1.2-4.3-1.5a.4.4 0 01.2-.8l4.4 1 4.3.7 4.4.5h1.4l.8.1 2.2.2h8.8l1.3-.1h.8l2.2-.2 1.4-.2h.8l3.3-.5s.2 0 .3.2l.4 1.1.2.6a73.2 73.2 0 006.9 14l1.3 2.1 1.6 2.3 3.1 4.2.6.8 1.4 1.6.8 1 .5.6 1.8 2 2.5 2.7 2.7 2.5 1.9 1.7 1 .8 1.4 1.3 1.5 1.1 1.1.8 2 1.5 3.2 2.1 1.8 1.2 1.4.8 1.5 1 1.6.8 1.1.6a103.6 103.6 0 007.8 4l2.7 1.3 3.3 1.5 1.5.7 2.6 1 1.2.5 3.3 1.4a.4.4 0 01-.2.7M352 485.1l-.2-.1-2.9-2.2-2-1.4-1-.8-1.8-1.2-1.3-.9-2-1.2-1.2-.7a86.6 86.6 0 00-20.4-8.5l-2.2-.5-1.3-.3-3.7-.7-3.6-.5-3.7-.4h-1.3l-2.3-.2H299.7a49 49 0 00-9.7.6 81.3 81.3 0 00-14.5 3l-.8.2-2.7 1-.7.2-2.8 1a66.7 66.7 0 00-19.2 11.4l-1 1-1.8 1.4-3.4 3.2-.8-.5a10 10 0 00-5.3-1.5h-.2c-1 0-2 .2-2.8.5a9 9 0 00-2.5 1.2 8.5 8.5 0 00-3 4.5 10.3 10.3 0 00-.5 2.9v3c.2.9.5 1.8 1 2.7.3.8.8 1.6 1.5 2.4a10.3 10.3 0 0010.7 3c1-.3 1.9-.8 2.7-1.5.8-.6 1.5-1.4 2.1-2.2 0-.2.2-.2.4-.2h.1l.3.3v.3l-.7 1 1 1 .8.9 2 2.2 1.2 1.3 1.6 1.9 1.7 1.9 3.5 3.9 2.6 2.7 4.5 4.7 3.1 3.2a214.7 214.7 0 007.8 7.7l1.7 1.6c.2.2.2.4 0 .6l-.2.1h-.2l-2-1.7a300 300 0 01-4.7-4.2l-5.4-4.9-5.9-5.6-2.8-2.8-4.2-4.2-1.3-1.4-1.7-1.8-1.2-1.4-2-2.2-1.3-1.7c-.8.9-1.8 1.5-2.9 2-2 1-4.6 1.3-7 .8a12.5 12.5 0 01-9.6-10 16 16 0 01.3-7.2 10.8 10.8 0 0111.3-8.2c2.2.2 4.3.8 6.1 2l2.3-1.9 2-1.4 1-.8a167.6 167.6 0 0112.8-8.2l2.5-1.3.9-.5 2.8-1.4.6-.3 2.7-1.2.7-.3 3-1.2.6-.2a68 68 0 0122.5-4.7 58.1 58.1 0 013.8-.2l2.6.1h1.3l2.7.3h1.1l3.8.6.6.1 3.2.7c.5 0 .9.2 1.3.3l2.5.6 1.2.4a41.6 41.6 0 013.7 1.3 73 73 0 007 3l2.3 1.2a69.3 69.3 0 0113.6 9.6l1.8 1.6 2.7 2.7c.1.1.2.4 0 .5-.1.2-.4.2-.6.1M375.5 496.9c0 .7-.2 1.4-.3 2a12.1 12.1 0 01-7.8 9 15.4 15.4 0 01-13.7-2.1 94.2 94.2 0 01-15.6 18.2l-2.3 2.1-.5.5a74.4 74.4 0 01-4.4 3.7l-2.5 2-2.5 2-1.8 1.3-.8.5c-1.2 1-2.4 1.8-3.7 2.7l-1.5 1c-.1.1-.4 0-.5-.1a.4.4 0 010-.6l1.5-1 3.6-2.9.7-.5 1.7-1.5 2.4-2 2.4-2.1 1.5-1.4.8-.7 1.8-1.7.5-.5a79.8 79.8 0 006.5-6.9 76.7 76.7 0 007.8-9.8 94 94 0 003.4-5.2l.8-1.5 1.3 1.1c1.6 1.4 3.6 2.3 5.7 2.7 2.1.4 4.3.2 6.2-.5 1-.4 1.8-1 2.5-1.6.8-.6 1.4-1.3 2-2.2a10.4 10.4 0 001.4-4.5v-.7-.8a8.7 8.7 0 00-2-5.5c-1.2-1.5-3-2.7-5.2-3.5-2-.7-4.3-.9-6.5-.6a12 12 0 00-6.2 2.7h-.5a.4.4 0 010-.6c1.4-1.8 3.7-3.2 6.3-4a15.5 15.5 0 017.6 0c2.7.7 5 2 6.9 4a11.6 11.6 0 013 7.5v.2c0 .3.1.6 0 .8z" />
        <path fill="#231f20" d="M237.3 496.6c0 .3.1.6.3.8v.1l.2.2h.1l.2.2c.4.2 1 .2 1.5.2a9 9 0 003.7-1.5c.4-.3 1-.2 1.3.1.5.5.5 1.2 0 1.6l-.7.7a5.3 5.3 0 01-.8.7l-.7.5h-.2a6 6 0 01-1 .6l-1 .3a9.8 9.8 0 01-2.8.4h-.2a11.2 11.2 0 01-4-.7 10.8 10.8 0 01-3.1-1.7l-.3-.2a.4.4 0 01.3-.7h.1l.4.1.5.2h.3l.6.2a16.8 16.8 0 003.4.5h1.5l-.2-.2-.2-.2v-.1l-.4-.5-.4-1.3v-.7V495.6l.3-1.2a4.4 4.4 0 012.5-2.7 4.6 4.6 0 011.8-.4c.6 0 1.2.1 1.7.4.2 0 .3.2.3.4-.1.2-.2.3-.4.3h-.1c-.6-.2-1.3-.2-2 0a3.6 3.6 0 00-1.6.8 3 3 0 00-.9 1.6v1.4zM363.2 498.5h.5a18.8 18.8 0 003.5-.8l.6-.2.3-.1.5-.2.4-.2h.1l.3.1a.4.4 0 010 .5l-.2.2-.5.5-.9.6a11.6 11.6 0 01-3.6 1.7 11.3 11.3 0 01-6.3 0c-.4 0-.7-.2-1-.4h-.2l-.7-.5-.3-.1-.6-.5-.8-.6c-.4-.3-.6-.9-.3-1.4.2-.5.9-.7 1.4-.5 1.5.8 2.7 1.1 3.9 1.2h.9l.7-.4.2-.1v-.1l.2-.2.2-.2v-.2l.1-.4a4.8 4.8 0 00-.2-2 3 3 0 00-1-1.5l-.8-.4a4 4 0 00-3 0c-.2 0-.3 0-.4-.2-.1-.2 0-.4.1-.5.7-.3 1.5-.5 2.4-.5.4 0 .8 0 1.3.2a4 4 0 012.1 1.4 4.3 4.3 0 01.9 1.7v.5l.1.3.1.5v1.1l-.1.2-.2.5-.1.3-.4.5-.1.2h-.1 1M297.4 506.4H295.8a9.2 9.2 0 01-5.5-2.5 8.4 8.4 0 01-2.5-4.6 7.2 7.2 0 01.7-4.6l.2-.3.3-.2h.1c.2 0 .3.3.3.5l-.2.3a6.4 6.4 0 00-.2 4 7.3 7.3 0 006.9 5.3H296.5a7.7 7.7 0 001.9-.4 9.2 9.2 0 003.8-2.3l1.1-1.5c.5-1 .8-1.9 1-3v-1.3l.3-.3h.1c.2 0 .4 0 .4.2l.1.4a6.5 6.5 0 01.3 1.3 15.2 15.2 0 017.2-1.6 19.9 19.9 0 019.8 3 19.6 19.6 0 018.3 11.6c.3 1.1.6 2.5.7 3.8v2a12.6 12.6 0 01-1.4 6c-.7 1.2-1.5 2.3-2.5 3.3-1.6 1.6-3.9 3-6.6 3.9a25.8 25.8 0 01-17.6-1.3 31 31 0 01-5.4-3.2l-.7-.5a.4.4 0 010-.5l.2-.2h.2l.8.5a30.6 30.6 0 0010 3.8c4.2.7 8.3.4 11.8-.8 2.3-.8 4.1-2 5.6-3.4.8-.9 1.5-1.8 2-2.7a11.7 11.7 0 001.2-6.7 19.5 19.5 0 00-7.7-13.9 17.5 17.5 0 00-9.7-3.3 16.9 16.9 0 00-5.8 1l-.3.1a7.8 7.8 0 01-6.7 8l-1.5.1M291.3 523.9l-.7.5c-.3.2-.6.5-1 .6a17.8 17.8 0 01-6.7 2.5 18.5 18.5 0 01-10.3-1.3c-2-.9-3.6-2.2-5-3.7a13.7 13.7 0 01-3-9 25 25 0 01.2-3c.3-2 1-4 2-5.8a13.7 13.7 0 018.2-6.6c1.3-.4 2.6-.5 3.9-.5h.3c1 0 2.1 0 3 .3l1.9.5.8.3a.4.4 0 01-.2.8l-.7-.2c-.6-.1-1.2-.3-1.9-.3-2.2-.3-4.4 0-6.5.8a12.7 12.7 0 00-6.8 6 16.1 16.1 0 00-1.5 10.4 11 11 0 006.3 8c1.4.7 3 1.2 4.7 1.5a18.7 18.7 0 0012.5-2.5l.5-.4h.5c.2.2.2.5 0 .6z" />
        <path fill="#231f20" d="M305 514.4c0 1.5-1 2.7-2.1 2.7-1.2 0-2.2-1.2-2.2-2.7 0-1.5 1-2.7 2.2-2.7 1.1 0 2 1.2 2 2.7M289.6 511c1 0 2 1 2 2.4s-1 2.5-2 2.5-1.9-1.1-1.9-2.5c0-1.3.9-2.4 2-2.4M332.2 489.7a37.6 37.6 0 00-4.4-2.4l-1.3-.5-.6-.3-.6-.3c-1.2-.5-2.4-1-3.8-1.4a93 93 0 00-4.3-1.4l-.8-.2a119.4 119.4 0 00-11.2-2.6 93.3 93.3 0 00-31 .4l-.7.2a.4.4 0 01-.5-.3.4.4 0 01.3-.6l.7-.2h.5a38.6 38.6 0 014.6-1.1 90.8 90.8 0 0138.3.8 43 43 0 0117.7 9.7l.3-.4.4-.7h.5l.1.2a4.1 4.1 0 01.6 1.6v.5c0 .3-.1.7-.3 1l-.7.7a3 3 0 01-.8.4 4 4 0 01-1.2.1h-.4a.4.4 0 01-.1-.5l.3-.6.4-.8a79.3 79.3 0 00-2-1.3" />
    </g>
</svg>
