<svg xmlns="http://www.w3.org/2000/svg" version="1.2" viewBox="0 0 100 102.523">
   <path fill="#eb1923" d="M73.406 102.523h-53.72L44.072 0H97.8L73.406 102.523M98.305 34.09c-.424-.048-1.016-.068-1.77-.068l-8.2 34.452c.228-.007.47-.013.665-.027.606-.047 1.124-.148 1.534-.29.478-.174.841-.43 1.09-.78.229-.309.397-.7.518-1.177l7.569-28.707c.168-.666.255-1.19.282-1.594.04-.545-.1-.982-.417-1.299-.29-.289-.706-.457-1.271-.51"/>
   <path fill="#fff" d="M29.312 65.702c.02.895.276 1.568.78 2.012.492.424 1.104.646 1.817.646h16.557c.283 0 .545-.088.78-.263.223-.161.397-.397.519-.7.107-.255.181-.571.235-.961.04-.35.067-.787.067-1.312 0-.518-.027-.956-.067-1.312-.054-.39-.128-.7-.235-.955a1.542 1.542 0 00-.519-.707 1.32 1.32 0 00-.78-.256H37.197v-8.086h9.358c.276 0 .532-.08.76-.229.223-.155.398-.377.539-.686.108-.249.182-.559.235-.942.04-.343.068-.774.068-1.298 0-.505-.027-.936-.068-1.292-.053-.384-.127-.7-.242-.955a1.623 1.623 0 00-.511-.68 1.32 1.32 0 00-.78-.256h-9.359v-6.835h11.168c.29 0 .565-.094.78-.269.21-.161.37-.397.492-.693.107-.256.188-.565.235-.962.047-.35.067-.78.067-1.285 0-.538-.02-.982-.067-1.339a4.127 4.127 0 00-.229-.962c-.127-.316-.296-.558-.518-.713a1.279 1.279 0 00-.76-.242H31.91c-.713 0-1.325.215-1.816.646-.505.437-.76 1.116-.78 2.011v28.875M96.535 34.008c-1.702 0-4.117 0-4.42.02-.774.048-1.312.169-1.312.169v.013c-.181.04-.35.094-.484.155-.377.182-.646.437-.787.767a3.513 3.513 0 00-.216.74h-.02l-5.341 22.464L78.43 36.06c-.08-.41-.202-.74-.356-1.002-.182-.316-.471-.559-.862-.727-.33-.134-.76-.222-1.312-.262a31.451 31.451 0 00-1.99-.047c-.788 0-1.42.02-1.891.06-.532.054-.942.142-1.265.276-.39.168-.68.417-.861.74a3.286 3.286 0 00-.323.942l-5.423 22.605-5.207-22.74c-.067-.39-.148-.692-.256-.914-.148-.323-.423-.559-.814-.72-.296-.115-.706-.182-1.244-.216a37.131 37.131 0 00-1.931-.033c-.888 0-1.581.02-2.079.06-.626.054-1.076.216-1.393.491-.242.216-.531.62-.497 1.292.02.397.107.902.275 1.561l7.488 28.767c.121.471.27.855.458 1.15.222.364.572.633 1.043.808.397.148.908.25 1.554.296.598.04 1.399.06 2.401.06.949 0 1.716-.02 2.301-.06.64-.054 1.137-.154 1.534-.316.451-.182.794-.457 1.01-.814.194-.303.336-.68.43-1.13l4.447-18.602 4.69 18.582c.1.477.248.874.436 1.177.222.363.572.632 1.043.807.404.148.908.25 1.554.296.101.007.236.007.337.014v.013l.686.02h.074c1.123.027 3.222.068 4.555.034.652-.014 1.09-.04 1.291-.054l8.201-34.466"/>
   <path fill="#eb1923" d="M10.791 43.28a8.708 8.708 0 013.102-2.194c1.21-.518 2.59-.787 4.09-.787 1.44 0 2.705.154 3.781.444 1.097.296 2.045.619 2.832.962.78.336 1.413.66 1.884.948 1.097.687 1.662.673 2.16.303.201-.161.37-.41.477-.72.095-.262.162-.598.209-.989.047-.376.067-.827.067-1.345 0-.908-.054-1.581-.161-2.066-.128-.531-.35-.968-.653-1.291-.276-.283-.72-.592-1.359-.949-.612-.343-1.379-.66-2.28-.949-.889-.289-1.952-.531-3.163-.733-1.204-.202-2.55-.303-3.996-.303-2.657 0-5.106.418-7.286 1.238-2.186.821-4.077 2.032-5.63 3.593-1.548 1.554-2.76 3.465-3.607 5.691C.424 46.34 0 48.856 0 51.621c0 2.678.397 5.113 1.184 7.233.794 2.132 1.951 3.976 3.451 5.462 1.5 1.494 3.357 2.651 5.51 3.432 2.14.773 4.589 1.17 7.28 1.17.915 0 1.836-.047 2.745-.128a30.242 30.242 0 002.71-.397 26.452 26.452 0 002.59-.625 23.056 23.056 0 002.1-.7c.7-.282 1.177-.686 1.426-1.21.216-.472.323-1.003.323-1.595V51.137c0-.397-.054-.767-.155-1.097a2.556 2.556 0 00-.49-.881 2.062 2.062 0 00-.781-.579 2.35 2.35 0 00-.969-.195H15.797c-.29 0-.559.095-.788.276a1.757 1.757 0 00-.49.666 3.71 3.71 0 00-.23.942 9.553 9.553 0 00-.073 1.278c0 1.003.1 1.723.309 2.194.363.814.955.935 1.272.935h5.63v6.66a7.44 7.44 0 01-1.567.545c-2.099.491-4.285.229-6.048-.457a8.113 8.113 0 01-3.028-2.039c-.84-.901-1.5-2.045-1.97-3.39-.478-1.366-.72-2.974-.72-4.784 0-1.642.242-3.155.706-4.5.464-1.333 1.13-2.483 1.991-3.432"/>
 </svg>
